999
dxfrw 0.6.3
  0
SECTION
  2
HEADER
  9
$ACADVER
  1
AC1021
  9
$DWGCODEPAGE
  3
ANSI_1252
  9
$INSBASE
 10
0
 20
0
 30
0
  9
$EXTMIN
 10
0
 20
0
 30
0
  9
$EXTMAX
 10
547.8777806000164
 20
210
 30
0
  9
$LIMMIN
 10
0
 20
0
  9
$LIMMAX
 10
420
 20
297
  9
$ORTHOMODE
 70
    0
  9
$REGENMODE
 70
    1
  9
$FILLMODE
 70
    1
  9
$QTEXTMODE
 70
    0
  9
$MIRRTEXT
 70
    0
  9
$LTSCALE
 40
1
  9
$ATTMODE
 70
    0
  9
$TEXTSIZE
 40
2.5
  9
$TRACEWID
 40
15.68
  9
$TEXTSTYLE
  7
STANDARD
  9
$CLAYER
  8
0
  9
$CELTYPE
  6
BYLAYER
  9
$CECOLOR
 62
  256
  9
$CELTSCALE
 40
1
  9
$DISPSILH
 70
    0
  9
$DIMSCALE
 40
2.5
  9
$DIMASZ
 40
2.5
  9
$DIMEXO
 40
0.625
  9
$DIMDLI
 40
3.75
  9
$DIMRND
 40
0
  9
$DIMDLE
 40
0
  9
$DIMEXE
 40
1.25
  9
$DIMTP
 40
0
  9
$DIMTM
 40
0
  9
$DIMTXT
 40
2.5
  9
$DIMCEN
 40
2.5
  9
$DIMTSZ
 40
0
  9
$DIMTOL
 70
    0
  9
$DIMLIM
 70
    0
  9
$DIMTIH
 70
    0
  9
$DIMTOH
 70
    0
  9
$DIMSE1
 70
    0
  9
$DIMSE2
 70
    0
  9
$DIMTAD
 70
    1
  9
$DIMZIN
 70
    8
  9
$DIMBLK
  1

  9
$DIMASO
 70
    1
  9
$DIMSHO
 70
    1
  9
$DIMPOST
  1

  9
$DIMAPOST
  1

  9
$DIMALT
 70
    0
  9
$DIMALTD
 70
    3
  9
$DIMALTF
 40
0.03937
  9
$DIMLFAC
 40
1
  9
$DIMTOFL
 70
    1
  9
$DIMTVP
 40
0
  9
$DIMTIX
 70
    0
  9
$DIMSOXD
 70
    0
  9
$DIMSAH
 70
    0
  9
$DIMBLK1
  1

  9
$DIMBLK2
  1

  9
$DIMSTYLE
  2
STANDARD
  9
$DIMCLRD
 70
    0
  9
$DIMCLRE
 70
    0
  9
$DIMCLRT
 70
    0
  9
$DIMTFAC
 40
1
  9
$DIMGAP
 40
0.625
  9
$DIMJUST
 70
    0
  9
$DIMSD1
 70
    0
  9
$DIMSD2
 70
    0
  9
$DIMTOLJ
 70
    0
  9
$DIMTZIN
 70
    8
  9
$DIMALTZ
 70
    0
  9
$DIMALTTZ
 70
    0
  9
$DIMUPT
 70
    0
  9
$DIMDEC
 70
    2
  9
$DIMTDEC
 70
    2
  9
$DIMALTU
 70
    2
  9
$DIMALTTD
 70
    3
  9
$DIMTXSTY
  7
STANDARD
  9
$DIMAUNIT
 70
    0
  9
$DIMADEC
 70
    0
  9
$DIMALTRND
 40
0
  9
$DIMAZIN
 70
    0
  9
$DIMDSEP
 70
   44
  9
$DIMATFIT
 70
    3
  9
$DIMFRAC
 70
    0
  9
$DIMLDRBLK
  1
STANDARD
  9
$DIMLUNIT
 70
    2
  9
$DIMLWD
 70
   -2
  9
$DIMLWE
 70
   -2
  9
$DIMTMOVE
 70
    0
  9
$DIMFXL
 40
1
  9
$DIMFXLON
 70
    0
  9
$DIMJOGANG
 40
0.7854
  9
$DIMTFILL
 70
    0
  9
$DIMTFILLCLR
 70
    0
  9
$DIMARCSYM
 70
    0
  9
$DIMLTYPE
  6

  9
$DIMLTEX1
  6

  9
$DIMLTEX2
  6

  9
$LUNITS
 70
    2
  9
$LUPREC
 70
    4
  9
$SKETCHINC
 40
1
  9
$FILLETRAD
 40
0
  9
$AUNITS
 70
    0
  9
$AUPREC
 70
    2
  9
$MENU
  1
.
  9
$ELEVATION
 40
0
  9
$PELEVATION
 40
0
  9
$THICKNESS
 40
0
  9
$LIMCHECK
 70
    0
  9
$CHAMFERA
 40
0
  9
$CHAMFERB
 40
0
  9
$CHAMFERC
 40
0
  9
$CHAMFERD
 40
0
  9
$SKPOLY
 70
    0
  9
$USRTIMER
 70
    1
  9
$ANGBASE
 50
0
  9
$ANGDIR
 70
    0
  9
$PDMODE
 70
   34
  9
$PDSIZE
 40
0
  9
$PLINEWID
 40
0
  9
$SPLFRAME
 70
    0
  9
$SPLINETYPE
 70
    2
  9
$SPLINESEGS
 70
    8
  9
$HANDSEED
  5
20000
  9
$SURFTAB1
 70
    6
  9
$SURFTAB2
 70
    6
  9
$SURFTYPE
 70
    6
  9
$SURFU
 70
    6
  9
$SURFV
 70
    6
  9
$UCSBASE
  2

  9
$UCSNAME
  2

  9
$UCSORG
 10
0
 20
0
 30
0
  9
$UCSXDIR
 10
1
 20
0
 30
0
  9
$UCSYDIR
 10
0
 20
1
 30
0
  9
$UCSORTHOREF
  2

  9
$UCSORTHOVIEW
 70
    0
  9
$UCSORGTOP
 10
0
 20
0
 30
0
  9
$UCSORGBOTTOM
 10
0
 20
0
 30
0
  9
$UCSORGLEFT
 10
0
 20
0
 30
0
  9
$UCSORGRIGHT
 10
0
 20
0
 30
0
  9
$UCSORGFRONT
 10
0
 20
0
 30
0
  9
$UCSORGBACK
 10
0
 20
0
 30
0
  9
$PUCSBASE
  2

  9
$PUCSNAME
  2

  9
$PUCSORG
 10
0
 20
0
 30
0
  9
$PUCSXDIR
 10
1
 20
0
 30
0
  9
$PUCSYDIR
 10
0
 20
1
 30
0
  9
$PUCSORTHOREF
  2

  9
$PUCSORTHOVIEW
 70
    0
  9
$PUCSORGTOP
 10
0
 20
0
 30
0
  9
$PUCSORGBOTTOM
 10
0
 20
0
 30
0
  9
$PUCSORGLEFT
 10
0
 20
0
 30
0
  9
$PUCSORGRIGHT
 10
0
 20
0
 30
0
  9
$PUCSORGFRONT
 10
0
 20
0
 30
0
  9
$PUCSORGBACK
 10
0
 20
0
 30
0
  9
$USERI1
 70
    0
  9
$USERI2
 70
    0
  9
$USERI3
 70
    0
  9
$USERI4
 70
    0
  9
$USERI5
 70
    0
  9
$USERR1
 40
0
  9
$USERR2
 40
0
  9
$USERR3
 40
0
  9
$USERR4
 40
0
  9
$USERR5
 40
0
  9
$WORLDVIEW
 70
    1
  9
$SHADEDGE
 70
    3
  9
$SHADEDIF
 70
   70
  9
$TILEMODE
 70
    1
  9
$MAXACTVP
 70
   64
  9
$PINSBASE
 10
148.5
 20
107.75
 30
0
  9
$PLIMCHECK
 70
    0
  9
$PEXTMIN
 10
0
 20
0
 30
0
  9
$PEXTMAX
 10
0
 20
0
 30
0
  9
$SNAPSTYLE
 70
    0
  9
$PLIMMIN
 10
0
 20
0
  9
$PLIMMAX
 10
297
 20
210
  9
$UNITMODE
 70
    0
  9
$VISRETAIN
 70
    1
  9
$PLINEGEN
 70
    0
  9
$PSLTSCALE
 70
    1
  9
$TREEDEPTH
 70
 3020
  9
$CMLSTYLE
  2
Standard
  9
$CMLJUST
 70
    0
  9
$CMLSCALE
 40
20
  9
$PROXYGRAPHICS
 70
    1
  9
$MEASUREMENT
 70
    1
  9
$CELWEIGHT
370
   -1
  9
$ENDCAPS
280
    0
  9
$JOINSTYLE
280
    0
  9
$LWDISPLAY
290
    0
  9
$INSUNITS
 70
    4
  9
$HYPERLINKBASE
  1

  9
$STYLESHEET
  1

  9
$XEDIT
290
    1
  9
$CEPSNTYPE
380
    0
  9
$PSTYLEMODE
290
    1
  9
$EXTNAMES
290
    1
  9
$PSVPSCALE
 40
1
  9
$OLESTARTUP
290
    0
  9
$SORTENTS
280
  127
  9
$INDEXCTL
280
    0
  9
$HIDETEXT
280
    1
  9
$XCLIPFRAME
290
    0
  9
$HALOGAP
280
    0
  9
$OBSCOLOR
 70
  257
  9
$OBSLTYPE
280
    0
  9
$INTERSECTIONDISPLAY
280
    0
  9
$INTERSECTIONCOLOR
 70
  257
  9
$DIMASSOC
280
    1
  9
$PROJECTNAME
  1

  9
$CAMERADISPLAY
290
    0
  9
$LENSLENGTH
 40
50
  9
$CAMERAHEIGHT
 40
0
  9
$STEPSPERSEC
 40
2
  9
$STEPSIZE
 40
50
  9
$3DDWFPREC
 40
2
  9
$PSOLWIDTH
 40
5
  9
$PSOLHEIGHT
 40
80
  9
$LOFTANG1
 40
1.570796326794897
  9
$LOFTANG2
 40
1.570796326794897
  9
$LOFTMAG1
 40
0
  9
$LOFTMAG2
 40
0
  9
$LOFTPARAM
 70
    7
  9
$LOFTNORMALS
280
    1
  9
$LATITUDE
 40
1
  9
$LONGITUDE
 40
1
  9
$NORTHDIRECTION
 40
0
  9
$TIMEZONE
 70
-8000
  9
$LIGHTGLYPHDISPLAY
280
    1
  9
$TILEMODELIGHTSYNCH
280
    1
  9
$SOLIDHIST
280
    1
  9
$SHOWHIST
280
    1
  9
$DWFFRAME
280
    2
  9
$DGNFRAME
280
    0
  9
$REALWORLDSCALE
290
    1
  9
$INTERFERECOLOR
 62
    1
  9
$CSHADOW
280
    0
  9
$SHADOWPLANELOCATION
 40
0
  0
ENDSEC
  0
SECTION
  2
CLASSES
  0
ENDSEC
  0
SECTION
  2
TABLES
  0
TABLE
  2
VPORT
  5
8
330
0
100
AcDbSymbolTable
 70
    1
  0
VPORT
  5
31
330
2
100
AcDbSymbolTableRecord
100
AcDbViewportTableRecord
  2
*ACTIVE
 70
    0
 10
0
 20
0
 11
1
 21
1
 12
211.3677315000043
 22
129.1153038750026
 13
0
 23
0
 14
10
 24
10
 15
10
 25
10
 16
0
 26
0
 36
1
 17
0
 27
0
 37
0
 40
319.9603275000065
 41
1.538383838383838
 42
50
 43
0
 44
0
 50
0
 51
0
 71
    0
 72
  100
 73
    1
 74
    3
 75
    0
 76
    1
 77
    0
 78
    0
281
    0
 65
    1
110
0
120
0
130
0
111
1
121
0
131
0
112
0
122
1
132
0
 79
    0
146
0
348
10020
 60
    7
 61
    5
292
1
282
    1
141
0
142
0
 63
  250
421
3358443
  0
ENDTAB
  0
TABLE
  2
LTYPE
  5
5
330
0
100
AcDbSymbolTable
 70
    4
  0
LTYPE
  5
14
330
5
100
AcDbSymbolTableRecord
100
AcDbLinetypeTableRecord
  2
ByBlock
 70
    0
  3

 72
   65
 73
    0
 40
0
  0
LTYPE
  5
15
330
5
100
AcDbSymbolTableRecord
100
AcDbLinetypeTableRecord
  2
ByLayer
 70
    0
  3

 72
   65
 73
    0
 40
0
  0
LTYPE
  5
16
330
5
100
AcDbSymbolTableRecord
100
AcDbLinetypeTableRecord
  2
Continuous
 70
    0
  3
Solid line
 72
   65
 73
    0
 40
0
  0
LTYPE
  5
32
330
5
100
AcDbSymbolTableRecord
100
AcDbLinetypeTableRecord
  2
DOT
 70
    0
  3
Dot . . . . . . . . . . . . . . . . . . . . . .
 72
   65
 73
    2
 40
6.35
 49
0
 74
    0
 49
-6.35
 74
    0
  0
LTYPE
  5
33
330
5
100
AcDbSymbolTableRecord
100
AcDbLinetypeTableRecord
  2
DOTTINY
 70
    0
  3
Dot (.15x) .....................................
 72
   65
 73
    2
 40
0.9525
 49
0
 74
    0
 49
-0.9525
 74
    0
  0
LTYPE
  5
34
330
5
100
AcDbSymbolTableRecord
100
AcDbLinetypeTableRecord
  2
DOT2
 70
    0
  3
Dot (.5x) .....................................
 72
   65
 73
    2
 40
3.175
 49
0
 74
    0
 49
-3.175
 74
    0
  0
LTYPE
  5
35
330
5
100
AcDbSymbolTableRecord
100
AcDbLinetypeTableRecord
  2
DOTX2
 70
    0
  3
Dot (2x) .  .  .  .  .  .  .  .  .  .  .  .  .
 72
   65
 73
    2
 40
12.7
 49
0
 74
    0
 49
-12.7
 74
    0
  0
LTYPE
  5
36
330
5
100
AcDbSymbolTableRecord
100
AcDbLinetypeTableRecord
  2
DASHED
 70
    0
  3
Dashed _ _ _ _ _ _ _ _ _ _ _ _ _ _ _ _ _
 72
   65
 73
    2
 40
19.05
 49
12.7
 74
    0
 49
-6.35
 74
    0
  0
LTYPE
  5
37
330
5
100
AcDbSymbolTableRecord
100
AcDbLinetypeTableRecord
  2
DASHEDTINY
 70
    0
  3
Dashed (.15x) _ _ _ _ _ _ _ _ _ _ _ _ _ _ _ _ _
 72
   65
 73
    2
 40
2.8575
 49
1.905
 74
    0
 49
-0.9525
 74
    0
  0
LTYPE
  5
38
330
5
100
AcDbSymbolTableRecord
100
AcDbLinetypeTableRecord
  2
DASHED2
 70
    0
  3
Dashed (.5x) _ _ _ _ _ _ _ _ _ _ _ _ _ _ _ _ _
 72
   65
 73
    2
 40
9.524999999999999
 49
6.35
 74
    0
 49
-3.175
 74
    0
  0
LTYPE
  5
39
330
5
100
AcDbSymbolTableRecord
100
AcDbLinetypeTableRecord
  2
DASHEDX2
 70
    0
  3
Dashed (2x) ____  ____  ____  ____  ____  ___
 72
   65
 73
    2
 40
38.09999999999999
 49
25.4
 74
    0
 49
-12.7
 74
    0
  0
LTYPE
  5
3A
330
5
100
AcDbSymbolTableRecord
100
AcDbLinetypeTableRecord
  2
DASHDOT
 70
    0
  3
Dash dot __ . __ . __ . __ . __ . __ . __ . __
 72
   65
 73
    4
 40
25.4
 49
12.7
 74
    0
 49
-6.35
 74
    0
 49
0
 74
    0
 49
-6.35
 74
    0
  0
LTYPE
  5
3B
330
5
100
AcDbSymbolTableRecord
100
AcDbLinetypeTableRecord
  2
DASHDOTTINY
 70
    0
  3
Dash dot (.15x) _._._._._._._._._._._._._._._.
 72
   65
 73
    4
 40
3.81
 49
1.905
 74
    0
 49
-0.9525
 74
    0
 49
0
 74
    0
 49
-0.9525
 74
    0
  0
LTYPE
  5
3C
330
5
100
AcDbSymbolTableRecord
100
AcDbLinetypeTableRecord
  2
DASHDOT2
 70
    0
  3
Dash dot (.5x) _._._._._._._._._._._._._._._.
 72
   65
 73
    4
 40
12.7
 49
6.35
 74
    0
 49
-3.175
 74
    0
 49
0
 74
    0
 49
-3.175
 74
    0
  0
LTYPE
  5
3D
330
5
100
AcDbSymbolTableRecord
100
AcDbLinetypeTableRecord
  2
DASHDOTX2
 70
    0
  3
Dash dot (2x) ____  .  ____  .  ____  .  ___
 72
   65
 73
    4
 40
50.8
 49
25.4
 74
    0
 49
-12.7
 74
    0
 49
0
 74
    0
 49
-12.7
 74
    0
  0
LTYPE
  5
3E
330
5
100
AcDbSymbolTableRecord
100
AcDbLinetypeTableRecord
  2
DIVIDE
 70
    0
  3
Divide ____ . . ____ . . ____ . . ____ . . ____
 72
   65
 73
    6
 40
31.75
 49
12.7
 74
    0
 49
-6.35
 74
    0
 49
0
 74
    0
 49
-6.35
 74
    0
 49
0
 74
    0
 49
-6.35
 74
    0
  0
LTYPE
  5
3F
330
5
100
AcDbSymbolTableRecord
100
AcDbLinetypeTableRecord
  2
DIVIDETINY
 70
    0
  3
Divide (.15x) __..__..__..__..__..__..__..__.._
 72
   65
 73
    6
 40
4.7625
 49
1.905
 74
    0
 49
-0.9525
 74
    0
 49
0
 74
    0
 49
-0.9525
 74
    0
 49
0
 74
    0
 49
-0.9525
 74
    0
  0
LTYPE
  5
40
330
5
100
AcDbSymbolTableRecord
100
AcDbLinetypeTableRecord
  2
DIVIDE2
 70
    0
  3
Divide (.5x) __..__..__..__..__..__..__..__.._
 72
   65
 73
    6
 40
15.875
 49
6.35
 74
    0
 49
-3.175
 74
    0
 49
0
 74
    0
 49
-3.175
 74
    0
 49
0
 74
    0
 49
-3.175
 74
    0
  0
LTYPE
  5
41
330
5
100
AcDbSymbolTableRecord
100
AcDbLinetypeTableRecord
  2
DIVIDEX2
 70
    0
  3
Divide (2x) ________  .  .  ________  .  .  _
 72
   65
 73
    6
 40
63.5
 49
25.4
 74
    0
 49
-12.7
 74
    0
 49
0
 74
    0
 49
-12.7
 74
    0
 49
0
 74
    0
 49
-12.7
 74
    0
  0
LTYPE
  5
42
330
5
100
AcDbSymbolTableRecord
100
AcDbLinetypeTableRecord
  2
BORDER
 70
    0
  3
Border __ __ . __ __ . __ __ . __ __ . __ __ .
 72
   65
 73
    6
 40
44.45
 49
12.7
 74
    0
 49
-6.35
 74
    0
 49
12.7
 74
    0
 49
-6.35
 74
    0
 49
0
 74
    0
 49
-6.35
 74
    0
  0
LTYPE
  5
43
330
5
100
AcDbSymbolTableRecord
100
AcDbLinetypeTableRecord
  2
BORDERTINY
 70
    0
  3
Border (.15x) __.__.__.__.__.__.__.__.__.__.__.
 72
   65
 73
    6
 40
6.6675
 49
1.905
 74
    0
 49
-0.9525
 74
    0
 49
1.905
 74
    0
 49
-0.9525
 74
    0
 49
0
 74
    0
 49
-0.9525
 74
    0
  0
LTYPE
  5
44
330
5
100
AcDbSymbolTableRecord
100
AcDbLinetypeTableRecord
  2
BORDER2
 70
    0
  3
Border (.5x) __.__.__.__.__.__.__.__.__.__.__.
 72
   65
 73
    6
 40
22.225
 49
6.35
 74
    0
 49
-3.175
 74
    0
 49
6.35
 74
    0
 49
-3.175
 74
    0
 49
0
 74
    0
 49
-3.175
 74
    0
  0
LTYPE
  5
45
330
5
100
AcDbSymbolTableRecord
100
AcDbLinetypeTableRecord
  2
BORDERX2
 70
    0
  3
Border (2x) ____  ____  .  ____  ____  .  ___
 72
   65
 73
    6
 40
88.89999999999999
 49
25.4
 74
    0
 49
-12.7
 74
    0
 49
25.4
 74
    0
 49
-12.7
 74
    0
 49
0
 74
    0
 49
-12.7
 74
    0
  0
LTYPE
  5
46
330
5
100
AcDbSymbolTableRecord
100
AcDbLinetypeTableRecord
  2
CENTER
 70
    0
  3
Center ____ _ ____ _ ____ _ ____ _ ____ _ ____
 72
   65
 73
    4
 40
50.8
 49
31.75
 74
    0
 49
-6.35
 74
    0
 49
6.35
 74
    0
 49
-6.35
 74
    0
  0
LTYPE
  5
47
330
5
100
AcDbSymbolTableRecord
100
AcDbLinetypeTableRecord
  2
CENTERTINY
 70
    0
  3
Center (.15x) ___ _ ___ _ ___ _ ___ _ ___ _ ___
 72
   65
 73
    4
 40
7.619999999999999
 49
4.7625
 74
    0
 49
-0.9525
 74
    0
 49
0.9525
 74
    0
 49
-0.9525
 74
    0
  0
LTYPE
  5
48
330
5
100
AcDbSymbolTableRecord
100
AcDbLinetypeTableRecord
  2
CENTER2
 70
    0
  3
Center (.5x) ___ _ ___ _ ___ _ ___ _ ___ _ ___
 72
   65
 73
    4
 40
28.575
 49
19.05
 74
    0
 49
-3.175
 74
    0
 49
3.175
 74
    0
 49
-3.175
 74
    0
  0
LTYPE
  5
49
330
5
100
AcDbSymbolTableRecord
100
AcDbLinetypeTableRecord
  2
CENTERX2
 70
    0
  3
Center (2x) ________  __  ________  __  _____
 72
   65
 73
    4
 40
101.6
 49
63.5
 74
    0
 49
-12.7
 74
    0
 49
12.7
 74
    0
 49
-12.7
 74
    0
  0
ENDTAB
  0
TABLE
  2
LAYER
  5
2
330
0
100
AcDbSymbolTable
 70
    1
  0
LAYER
  5
10
330
2
100
AcDbSymbolTableRecord
100
AcDbLayerTableRecord
  2
0
 70
    0
 62
    7
  6
CONTINUOUS
370
    0
390
F
  0
ENDTAB
  0
TABLE
  2
STYLE
  5
3
330
0
100
AcDbSymbolTable
 70
    3
  0
STYLE
  5
4A
330
2
100
AcDbSymbolTableRecord
100
AcDbTextStyleTableRecord
  2
STANDARD
 70
    0
 40
0
 41
1
 50
0
 71
    0
 42
1
  3
STANDARD
  4

  0
ENDTAB
  0
TABLE
  2
VIEW
  5
6
330
0
100
AcDbSymbolTable
 70
    0
  0
ENDTAB
  0
TABLE
  2
UCS
  5
7
330
0
100
AcDbSymbolTable
 70
    0
  0
ENDTAB
  0
TABLE
  2
APPID
  5
9
330
0
100
AcDbSymbolTable
 70
    1
  0
APPID
  5
12
330
9
100
AcDbSymbolTableRecord
100
AcDbRegAppTableRecord
  2
ACAD
 70
    0
  0
APPID
  5
4B
330
9
100
AcDbSymbolTableRecord
100
AcDbRegAppTableRecord
  2
LibreCad
 70
    0
  0
ENDTAB
  0
TABLE
  2
DIMSTYLE
  5
A
330
0
100
AcDbSymbolTable
 70
    1
100
AcDbDimStyleTable
 71
    1
  0
DIMSTYLE
105
4C
330
A
100
AcDbSymbolTableRecord
100
AcDbDimStyleTableRecord
  2
Standard
 70
    0
 40
1
 41
2.5
 42
0.625
 43
0.38
 44
1.25
 45
0
 46
0
 47
0
 48
0
 49
1
140
2.5
141
0.09
142
2.5
143
25.4
144
1
145
0
146
1
147
0.625
148
0
 71
    0
 72
    0
 73
    0
 74
    1
 75
    0
 76
    0
 77
    0
 78
    1
 79
    0
170
    0
171
    2
172
    0
173
    0
174
    0
175
    0
176
    0
177
    0
178
    0
179
    0
271
    2
272
    4
273
    2
274
    2
275
    0
276
    0
277
    2
278
    0
279
    0
280
    0
281
    0
282
    0
283
    1
284
    0
285
    0
286
    0
288
    0
289
    3
340
standard
341

371
   -2
372
   -2
  0
ENDTAB
  0
TABLE
  2
BLOCK_RECORD
  5
1
330
0
100
AcDbSymbolTable
 70
    2
  0
BLOCK_RECORD
  5
1F
330
1
100
AcDbSymbolTableRecord
100
AcDbBlockTableRecord
  2
*Model_Space
 70
    0
280
    1
281
    0
  0
BLOCK_RECORD
  5
1E
330
1
100
AcDbSymbolTableRecord
100
AcDbBlockTableRecord
  2
*Paper_Space
 70
    0
280
    1
281
    0
  0
ENDTAB
  0
ENDSEC
  0
SECTION
  2
BLOCKS
  0
BLOCK
  5
20
330
1F
100
AcDbEntity
  8
0
100
AcDbBlockBegin
  2
*Model_Space
 70
    0
 10
0
 20
0
 30
0
  3
*Model_Space
  1

  0
ENDBLK
  5
21
330
1F
100
AcDbEntity
  8
0
100
AcDbBlockEnd
  0
BLOCK
  5
1C
330
1B
100
AcDbEntity
  8
0
100
AcDbBlockBegin
  2
*Paper_Space
 70
    0
 10
0
 20
0
 30
0
  3
*Paper_Space
  1

  0
ENDBLK
  5
1D
330
1F
100
AcDbEntity
  8
0
100
AcDbBlockEnd
  0
ENDSEC
  0
SECTION
  2
ENTITIES
  0
LWPOLYLINE
  5
4D
100
AcDbEntity
  8
0
  6
ByLayer
 62
  256
370
   -1
100
AcDbPolyline
 90
    4
 70
    1
 43
0
 10
0
 20
0
 10
297
 20
0
 10
297
 20
210
 10
0
 20
210
  0
LINE
  5
4E
100
AcDbEntity
  8
0
  6
ByLayer
 62
  256
370
   -1
100
AcDbLine
 10
20
 20
210
 11
24
 21
210
  0
LINE
  5
4F
100
AcDbEntity
  8
0
  6
ByLayer
 62
  256
370
   -1
100
AcDbLine
 10
20
 20
210
 11
26
 21
210
  0
LINE
  5
50
100
AcDbEntity
  8
0
  6
ByLayer
 62
  256
370
   25
100
AcDbLine
 10
24
 20
20
 11
24
 21
24
  0
LINE
  5
51
100
AcDbEntity
  8
0
  6
ByLayer
 62
  256
370
   25
100
AcDbLine
 10
26
 20
20
 11
26
 21
24
  0
LINE
  5
52
100
AcDbEntity
  8
0
  6
ByLayer
 62
  256
370
   25
100
AcDbLine
 10
27
 20
20
 11
27
 21
24
  0
LINE
  5
53
100
AcDbEntity
  8
0
  6
ByLayer
 62
  256
370
   25
100
AcDbLine
 10
28
 20
20
 11
28
 21
24
  0
LINE
  5
54
100
AcDbEntity
  8
0
  6
ByLayer
 62
  256
370
   25
100
AcDbLine
 10
29
 20
20
 11
29
 21
24
  0
LINE
  5
55
100
AcDbEntity
  8
0
  6
ByLayer
 62
  256
370
   25
100
AcDbLine
 10
31
 20
20
 11
31
 21
24
  0
LINE
  5
56
100
AcDbEntity
  8
0
  6
ByLayer
 62
  256
370
   25
100
AcDbLine
 10
32
 20
20
 11
32
 21
24
  0
LINE
  5
57
100
AcDbEntity
  8
0
  6
ByLayer
 62
  256
370
   25
100
AcDbLine
 10
33
 20
20
 11
33
 21
24
  0
LINE
  5
58
100
AcDbEntity
  8
0
  6
ByLayer
 62
  256
370
   25
100
AcDbLine
 10
34
 20
20
 11
34
 21
24
  0
LINE
  5
59
100
AcDbEntity
  8
0
  6
ByLayer
 62
  256
370
   25
100
AcDbLine
 10
35
 20
20
 11
35
 21
24
  0
LINE
  5
5A
100
AcDbEntity
  8
0
  6
ByLayer
 62
  256
370
   25
100
AcDbLine
 10
36
 20
20
 11
36
 21
24
  0
LINE
  5
5B
100
AcDbEntity
  8
0
  6
ByLayer
 62
  256
370
   25
100
AcDbLine
 10
37
 20
20
 11
37
 21
24
  0
LINE
  5
5C
100
AcDbEntity
  8
0
  6
ByLayer
 62
  256
370
   25
100
AcDbLine
 10
38
 20
20
 11
38
 21
24
  0
LINE
  5
5D
100
AcDbEntity
  8
0
  6
ByLayer
 62
  256
370
   25
100
AcDbLine
 10
39
 20
20
 11
39
 21
24
  0
LINE
  5
5E
100
AcDbEntity
  8
0
  6
ByLayer
 62
  256
370
   25
100
AcDbLine
 10
40
 20
20
 11
40
 21
24
  0
LINE
  5
5F
100
AcDbEntity
  8
0
  6
ByLayer
 62
  256
370
   25
100
AcDbLine
 10
41
 20
20
 11
41
 21
24
  0
LINE
  5
60
100
AcDbEntity
  8
0
  6
ByLayer
 62
  256
370
   25
100
AcDbLine
 10
42
 20
20
 11
42
 21
24
  0
LINE
  5
61
100
AcDbEntity
  8
0
  6
ByLayer
 62
  256
370
   25
100
AcDbLine
 10
43
 20
20
 11
43
 21
24
  0
LINE
  5
62
100
AcDbEntity
  8
0
  6
ByLayer
 62
  256
370
   25
100
AcDbLine
 10
44
 20
20
 11
44
 21
24
  0
LINE
  5
63
100
AcDbEntity
  8
0
  6
ByLayer
 62
  256
370
   25
100
AcDbLine
 10
45
 20
20
 11
45
 21
24
  0
LINE
  5
64
100
AcDbEntity
  8
0
  6
ByLayer
 62
  256
370
   25
100
AcDbLine
 10
46
 20
20
 11
46
 21
24
  0
LINE
  5
65
100
AcDbEntity
  8
0
  6
ByLayer
 62
  256
370
   25
100
AcDbLine
 10
47
 20
20
 11
47
 21
24
  0
LINE
  5
66
100
AcDbEntity
  8
0
  6
ByLayer
 62
  256
370
   25
100
AcDbLine
 10
48
 20
20
 11
48
 21
24
  0
LINE
  5
67
100
AcDbEntity
  8
0
  6
ByLayer
 62
  256
370
   25
100
AcDbLine
 10
49
 20
20
 11
49
 21
24
  0
LINE
  5
68
100
AcDbEntity
  8
0
  6
ByLayer
 62
  256
370
   25
100
AcDbLine
 10
50
 20
20
 11
50
 21
24
  0
LINE
  5
69
100
AcDbEntity
  8
0
  6
ByLayer
 62
  256
370
   25
100
AcDbLine
 10
51
 20
20
 11
51
 21
24
  0
LINE
  5
6A
100
AcDbEntity
  8
0
  6
ByLayer
 62
  256
370
   25
100
AcDbLine
 10
52
 20
20
 11
52
 21
24
  0
LINE
  5
6B
100
AcDbEntity
  8
0
  6
ByLayer
 62
  256
370
   25
100
AcDbLine
 10
53
 20
20
 11
53
 21
24
  0
LINE
  5
6C
100
AcDbEntity
  8
0
  6
ByLayer
 62
  256
370
   25
100
AcDbLine
 10
54
 20
20
 11
54
 21
24
  0
LINE
  5
6D
100
AcDbEntity
  8
0
  6
ByLayer
 62
  256
370
   25
100
AcDbLine
 10
55
 20
20
 11
55
 21
24
  0
LINE
  5
6E
100
AcDbEntity
  8
0
  6
ByLayer
 62
  256
370
   25
100
AcDbLine
 10
56
 20
20
 11
56
 21
24
  0
LINE
  5
6F
100
AcDbEntity
  8
0
  6
ByLayer
 62
  256
370
   25
100
AcDbLine
 10
57
 20
20
 11
57
 21
24
  0
LINE
  5
70
100
AcDbEntity
  8
0
  6
ByLayer
 62
  256
370
   25
100
AcDbLine
 10
58
 20
20
 11
58
 21
24
  0
LINE
  5
71
100
AcDbEntity
  8
0
  6
ByLayer
 62
  256
370
   25
100
AcDbLine
 10
59
 20
20
 11
59
 21
24
  0
LINE
  5
72
100
AcDbEntity
  8
0
  6
ByLayer
 62
  256
370
   25
100
AcDbLine
 10
60
 20
20
 11
60
 21
24
  0
LINE
  5
73
100
AcDbEntity
  8
0
  6
ByLayer
 62
  256
370
   25
100
AcDbLine
 10
61
 20
20
 11
61
 21
24
  0
LINE
  5
74
100
AcDbEntity
  8
0
  6
ByLayer
 62
  256
370
   25
100
AcDbLine
 10
62
 20
20
 11
62
 21
24
  0
LINE
  5
75
100
AcDbEntity
  8
0
  6
ByLayer
 62
  256
370
   25
100
AcDbLine
 10
63
 20
20
 11
63
 21
24
  0
LINE
  5
76
100
AcDbEntity
  8
0
  6
ByLayer
 62
  256
370
   25
100
AcDbLine
 10
64
 20
20
 11
64
 21
24
  0
LINE
  5
77
100
AcDbEntity
  8
0
  6
ByLayer
 62
  256
370
   25
100
AcDbLine
 10
65
 20
20
 11
65
 21
24
  0
LINE
  5
78
100
AcDbEntity
  8
0
  6
ByLayer
 62
  256
370
   25
100
AcDbLine
 10
66
 20
20
 11
66
 21
24
  0
LINE
  5
79
100
AcDbEntity
  8
0
  6
ByLayer
 62
  256
370
   25
100
AcDbLine
 10
67
 20
20
 11
67
 21
24
  0
LINE
  5
7A
100
AcDbEntity
  8
0
  6
ByLayer
 62
  256
370
   25
100
AcDbLine
 10
68
 20
20
 11
68
 21
24
  0
LINE
  5
7B
100
AcDbEntity
  8
0
  6
ByLayer
 62
  256
370
   25
100
AcDbLine
 10
69
 20
20
 11
69
 21
24
  0
LINE
  5
7C
100
AcDbEntity
  8
0
  6
ByLayer
 62
  256
370
   25
100
AcDbLine
 10
70
 20
20
 11
70
 21
24
  0
LINE
  5
7D
100
AcDbEntity
  8
0
  6
ByLayer
 62
  256
370
   25
100
AcDbLine
 10
71
 20
20
 11
71
 21
24
  0
LINE
  5
7E
100
AcDbEntity
  8
0
  6
ByLayer
 62
  256
370
   25
100
AcDbLine
 10
72
 20
20
 11
72
 21
24
  0
LINE
  5
7F
100
AcDbEntity
  8
0
  6
ByLayer
 62
  256
370
   25
100
AcDbLine
 10
73
 20
20
 11
73
 21
24
  0
LINE
  5
80
100
AcDbEntity
  8
0
  6
ByLayer
 62
  256
370
   25
100
AcDbLine
 10
74
 20
20
 11
74
 21
24
  0
LINE
  5
81
100
AcDbEntity
  8
0
  6
ByLayer
 62
  256
370
   25
100
AcDbLine
 10
75
 20
20
 11
75
 21
24
  0
LINE
  5
82
100
AcDbEntity
  8
0
  6
ByLayer
 62
  256
370
   25
100
AcDbLine
 10
76
 20
20
 11
76
 21
24
  0
LINE
  5
83
100
AcDbEntity
  8
0
  6
ByLayer
 62
  256
370
   25
100
AcDbLine
 10
77
 20
20
 11
77
 21
24
  0
LINE
  5
84
100
AcDbEntity
  8
0
  6
ByLayer
 62
  256
370
   25
100
AcDbLine
 10
78
 20
20
 11
78
 21
24
  0
LINE
  5
85
100
AcDbEntity
  8
0
  6
ByLayer
 62
  256
370
   25
100
AcDbLine
 10
79
 20
20
 11
79
 21
24
  0
LINE
  5
86
100
AcDbEntity
  8
0
  6
ByLayer
 62
  256
370
   25
100
AcDbLine
 10
80
 20
20
 11
80
 21
24
  0
LINE
  5
87
100
AcDbEntity
  8
0
  6
ByLayer
 62
  256
370
   25
100
AcDbLine
 10
81
 20
20
 11
81
 21
24
  0
LINE
  5
88
100
AcDbEntity
  8
0
  6
ByLayer
 62
  256
370
   25
100
AcDbLine
 10
82
 20
20
 11
82
 21
24
  0
LINE
  5
89
100
AcDbEntity
  8
0
  6
ByLayer
 62
  256
370
   25
100
AcDbLine
 10
83
 20
20
 11
83
 21
24
  0
LINE
  5
8A
100
AcDbEntity
  8
0
  6
ByLayer
 62
  256
370
   25
100
AcDbLine
 10
84
 20
20
 11
84
 21
24
  0
LINE
  5
8B
100
AcDbEntity
  8
0
  6
ByLayer
 62
  256
370
   25
100
AcDbLine
 10
85
 20
20
 11
85
 21
24
  0
LINE
  5
8C
100
AcDbEntity
  8
0
  6
ByLayer
 62
  256
370
   25
100
AcDbLine
 10
86
 20
20
 11
86
 21
24
  0
LINE
  5
8D
100
AcDbEntity
  8
0
  6
ByLayer
 62
  256
370
   25
100
AcDbLine
 10
87
 20
20
 11
87
 21
24
  0
LINE
  5
8E
100
AcDbEntity
  8
0
  6
ByLayer
 62
  256
370
   25
100
AcDbLine
 10
88
 20
20
 11
88
 21
24
  0
LINE
  5
8F
100
AcDbEntity
  8
0
  6
ByLayer
 62
  256
370
   25
100
AcDbLine
 10
89
 20
20
 11
89
 21
24
  0
LINE
  5
90
100
AcDbEntity
  8
0
  6
ByLayer
 62
  256
370
   25
100
AcDbLine
 10
90
 20
20
 11
90
 21
24
  0
LINE
  5
91
100
AcDbEntity
  8
0
  6
ByLayer
 62
  256
370
   25
100
AcDbLine
 10
91
 20
20
 11
91
 21
24
  0
LINE
  5
92
100
AcDbEntity
  8
0
  6
ByLayer
 62
  256
370
   25
100
AcDbLine
 10
92
 20
20
 11
92
 21
24
  0
LINE
  5
93
100
AcDbEntity
  8
0
  6
ByLayer
 62
  256
370
   25
100
AcDbLine
 10
93
 20
20
 11
93
 21
24
  0
LINE
  5
94
100
AcDbEntity
  8
0
  6
ByLayer
 62
  256
370
   25
100
AcDbLine
 10
94
 20
20
 11
94
 21
24
  0
LINE
  5
95
100
AcDbEntity
  8
0
  6
ByLayer
 62
  256
370
   25
100
AcDbLine
 10
95
 20
20
 11
95
 21
24
  0
LINE
  5
96
100
AcDbEntity
  8
0
  6
ByLayer
 62
  256
370
   25
100
AcDbLine
 10
96
 20
20
 11
96
 21
24
  0
LINE
  5
97
100
AcDbEntity
  8
0
  6
ByLayer
 62
  256
370
   25
100
AcDbLine
 10
97
 20
20
 11
97
 21
24
  0
LINE
  5
98
100
AcDbEntity
  8
0
  6
ByLayer
 62
  256
370
   25
100
AcDbLine
 10
98
 20
20
 11
98
 21
24
  0
LINE
  5
99
100
AcDbEntity
  8
0
  6
ByLayer
 62
  256
370
   25
100
AcDbLine
 10
99
 20
20
 11
99
 21
24
  0
LINE
  5
9A
100
AcDbEntity
  8
0
  6
ByLayer
 62
  256
370
   25
100
AcDbLine
 10
100
 20
20
 11
100
 21
24
  0
LINE
  5
9B
100
AcDbEntity
  8
0
  6
ByLayer
 62
  256
370
   25
100
AcDbLine
 10
101
 20
20
 11
101
 21
24
  0
LINE
  5
9C
100
AcDbEntity
  8
0
  6
ByLayer
 62
  256
370
   25
100
AcDbLine
 10
102
 20
20
 11
102
 21
24
  0
LINE
  5
9D
100
AcDbEntity
  8
0
  6
ByLayer
 62
  256
370
   25
100
AcDbLine
 10
103
 20
20
 11
103
 21
24
  0
LINE
  5
9E
100
AcDbEntity
  8
0
  6
ByLayer
 62
  256
370
   25
100
AcDbLine
 10
104
 20
20
 11
104
 21
24
  0
LINE
  5
9F
100
AcDbEntity
  8
0
  6
ByLayer
 62
  256
370
   25
100
AcDbLine
 10
105
 20
20
 11
105
 21
24
  0
LINE
  5
A0
100
AcDbEntity
  8
0
  6
ByLayer
 62
  256
370
   25
100
AcDbLine
 10
106
 20
20
 11
106
 21
24
  0
LINE
  5
A1
100
AcDbEntity
  8
0
  6
ByLayer
 62
  256
370
   25
100
AcDbLine
 10
107
 20
20
 11
107
 21
24
  0
LINE
  5
A2
100
AcDbEntity
  8
0
  6
ByLayer
 62
  256
370
   25
100
AcDbLine
 10
108
 20
20
 11
108
 21
24
  0
LINE
  5
A3
100
AcDbEntity
  8
0
  6
ByLayer
 62
  256
370
   25
100
AcDbLine
 10
109
 20
20
 11
109
 21
24
  0
LINE
  5
A4
100
AcDbEntity
  8
0
  6
ByLayer
 62
  256
370
   25
100
AcDbLine
 10
110
 20
20
 11
110
 21
24
  0
LINE
  5
A5
100
AcDbEntity
  8
0
  6
ByLayer
 62
  256
370
   25
100
AcDbLine
 10
111
 20
20
 11
111
 21
24
  0
LINE
  5
A6
100
AcDbEntity
  8
0
  6
ByLayer
 62
  256
370
   25
100
AcDbLine
 10
112
 20
20
 11
112
 21
24
  0
LINE
  5
A7
100
AcDbEntity
  8
0
  6
ByLayer
 62
  256
370
   25
100
AcDbLine
 10
113
 20
20
 11
113
 21
24
  0
LINE
  5
A8
100
AcDbEntity
  8
0
  6
ByLayer
 62
  256
370
   25
100
AcDbLine
 10
114
 20
20
 11
114
 21
24
  0
LINE
  5
A9
100
AcDbEntity
  8
0
  6
ByLayer
 62
  256
370
   25
100
AcDbLine
 10
115
 20
20
 11
115
 21
24
  0
LINE
  5
AA
100
AcDbEntity
  8
0
  6
ByLayer
 62
  256
370
   25
100
AcDbLine
 10
116
 20
20
 11
116
 21
24
  0
LINE
  5
AB
100
AcDbEntity
  8
0
  6
ByLayer
 62
  256
370
   25
100
AcDbLine
 10
117
 20
20
 11
117
 21
24
  0
LINE
  5
AC
100
AcDbEntity
  8
0
  6
ByLayer
 62
  256
370
   25
100
AcDbLine
 10
118
 20
20
 11
118
 21
24
  0
LINE
  5
AD
100
AcDbEntity
  8
0
  6
ByLayer
 62
  256
370
   25
100
AcDbLine
 10
119
 20
20
 11
119
 21
24
  0
LINE
  5
AE
100
AcDbEntity
  8
0
  6
ByLayer
 62
  256
370
   25
100
AcDbLine
 10
120
 20
20
 11
120
 21
24
  0
LINE
  5
AF
100
AcDbEntity
  8
0
  6
ByLayer
 62
  256
370
   25
100
AcDbLine
 10
121
 20
20
 11
121
 21
24
  0
LINE
  5
B0
100
AcDbEntity
  8
0
  6
ByLayer
 62
  256
370
   25
100
AcDbLine
 10
122
 20
20
 11
122
 21
24
  0
LINE
  5
B1
100
AcDbEntity
  8
0
  6
ByLayer
 62
  256
370
   25
100
AcDbLine
 10
123
 20
20
 11
123
 21
24
  0
LINE
  5
B2
100
AcDbEntity
  8
0
  6
ByLayer
 62
  256
370
   25
100
AcDbLine
 10
124
 20
20
 11
124
 21
24
  0
LINE
  5
B3
100
AcDbEntity
  8
0
  6
ByLayer
 62
  256
370
   25
100
AcDbLine
 10
125
 20
20
 11
125
 21
24
  0
LINE
  5
B4
100
AcDbEntity
  8
0
  6
ByLayer
 62
  256
370
   25
100
AcDbLine
 10
126
 20
20
 11
126
 21
24
  0
LINE
  5
B5
100
AcDbEntity
  8
0
  6
ByLayer
 62
  256
370
   25
100
AcDbLine
 10
127
 20
20
 11
127
 21
24
  0
LINE
  5
B6
100
AcDbEntity
  8
0
  6
ByLayer
 62
  256
370
   25
100
AcDbLine
 10
128
 20
20
 11
128
 21
24
  0
LINE
  5
B7
100
AcDbEntity
  8
0
  6
ByLayer
 62
  256
370
   25
100
AcDbLine
 10
129
 20
20
 11
129
 21
24
  0
LINE
  5
B8
100
AcDbEntity
  8
0
  6
ByLayer
 62
  256
370
   25
100
AcDbLine
 10
130
 20
20
 11
130
 21
24
  0
LINE
  5
B9
100
AcDbEntity
  8
0
  6
ByLayer
 62
  256
370
   25
100
AcDbLine
 10
131
 20
20
 11
131
 21
24
  0
LINE
  5
BA
100
AcDbEntity
  8
0
  6
ByLayer
 62
  256
370
   25
100
AcDbLine
 10
132
 20
20
 11
132
 21
24
  0
LINE
  5
BB
100
AcDbEntity
  8
0
  6
ByLayer
 62
  256
370
   25
100
AcDbLine
 10
133
 20
20
 11
133
 21
24
  0
LINE
  5
BC
100
AcDbEntity
  8
0
  6
ByLayer
 62
  256
370
   25
100
AcDbLine
 10
134
 20
20
 11
134
 21
24
  0
LINE
  5
BD
100
AcDbEntity
  8
0
  6
ByLayer
 62
  256
370
   25
100
AcDbLine
 10
135
 20
20
 11
135
 21
24
  0
LINE
  5
BE
100
AcDbEntity
  8
0
  6
ByLayer
 62
  256
370
   25
100
AcDbLine
 10
136
 20
20
 11
136
 21
24
  0
LINE
  5
BF
100
AcDbEntity
  8
0
  6
ByLayer
 62
  256
370
   25
100
AcDbLine
 10
137
 20
20
 11
137
 21
24
  0
LINE
  5
C0
100
AcDbEntity
  8
0
  6
ByLayer
 62
  256
370
   25
100
AcDbLine
 10
138
 20
20
 11
138
 21
24
  0
LINE
  5
C1
100
AcDbEntity
  8
0
  6
ByLayer
 62
  256
370
   25
100
AcDbLine
 10
139
 20
20
 11
139
 21
24
  0
LINE
  5
C2
100
AcDbEntity
  8
0
  6
ByLayer
 62
  256
370
   25
100
AcDbLine
 10
140
 20
20
 11
140
 21
24
  0
LINE
  5
C3
100
AcDbEntity
  8
0
  6
ByLayer
 62
  256
370
   25
100
AcDbLine
 10
141
 20
20
 11
141
 21
24
  0
LINE
  5
C4
100
AcDbEntity
  8
0
  6
ByLayer
 62
  256
370
   25
100
AcDbLine
 10
142
 20
20
 11
142
 21
24
  0
LINE
  5
C5
100
AcDbEntity
  8
0
  6
ByLayer
 62
  256
370
   25
100
AcDbLine
 10
143
 20
20
 11
143
 21
24
  0
LINE
  5
C6
100
AcDbEntity
  8
0
  6
ByLayer
 62
  256
370
   25
100
AcDbLine
 10
144
 20
20
 11
144
 21
24
  0
LINE
  5
C7
100
AcDbEntity
  8
0
  6
ByLayer
 62
  256
370
   25
100
AcDbLine
 10
145
 20
20
 11
145
 21
24
  0
LINE
  5
C8
100
AcDbEntity
  8
0
  6
ByLayer
 62
  256
370
   25
100
AcDbLine
 10
146
 20
20
 11
146
 21
24
  0
LINE
  5
C9
100
AcDbEntity
  8
0
  6
ByLayer
 62
  256
370
   25
100
AcDbLine
 10
147
 20
20
 11
147
 21
24
  0
LINE
  5
CA
100
AcDbEntity
  8
0
  6
ByLayer
 62
  256
370
   25
100
AcDbLine
 10
148
 20
20
 11
148
 21
24
  0
LINE
  5
CB
100
AcDbEntity
  8
0
  6
ByLayer
 62
  256
370
   25
100
AcDbLine
 10
149
 20
20
 11
149
 21
24
  0
LINE
  5
CC
100
AcDbEntity
  8
0
  6
ByLayer
 62
  256
370
   25
100
AcDbLine
 10
150
 20
20
 11
150
 21
24
  0
LINE
  5
CD
100
AcDbEntity
  8
0
  6
ByLayer
 62
  256
370
   25
100
AcDbLine
 10
151
 20
20
 11
151
 21
24
  0
LINE
  5
CE
100
AcDbEntity
  8
0
  6
ByLayer
 62
  256
370
   25
100
AcDbLine
 10
152
 20
20
 11
152
 21
24
  0
LINE
  5
CF
100
AcDbEntity
  8
0
  6
ByLayer
 62
  256
370
   25
100
AcDbLine
 10
153
 20
20
 11
153
 21
24
  0
LINE
  5
D0
100
AcDbEntity
  8
0
  6
ByLayer
 62
  256
370
   25
100
AcDbLine
 10
154
 20
20
 11
154
 21
24
  0
LINE
  5
D1
100
AcDbEntity
  8
0
  6
ByLayer
 62
  256
370
   25
100
AcDbLine
 10
155
 20
20
 11
155
 21
24
  0
LINE
  5
D2
100
AcDbEntity
  8
0
  6
ByLayer
 62
  256
370
   25
100
AcDbLine
 10
156
 20
20
 11
156
 21
24
  0
LINE
  5
D3
100
AcDbEntity
  8
0
  6
ByLayer
 62
  256
370
   25
100
AcDbLine
 10
157
 20
20
 11
157
 21
24
  0
LINE
  5
D4
100
AcDbEntity
  8
0
  6
ByLayer
 62
  256
370
   25
100
AcDbLine
 10
158
 20
20
 11
158
 21
24
  0
LINE
  5
D5
100
AcDbEntity
  8
0
  6
ByLayer
 62
  256
370
   25
100
AcDbLine
 10
159
 20
20
 11
159
 21
24
  0
LINE
  5
D6
100
AcDbEntity
  8
0
  6
ByLayer
 62
  256
370
   25
100
AcDbLine
 10
160
 20
20
 11
160
 21
24
  0
LINE
  5
D7
100
AcDbEntity
  8
0
  6
ByLayer
 62
  256
370
   25
100
AcDbLine
 10
161
 20
20
 11
161
 21
24
  0
LINE
  5
D8
100
AcDbEntity
  8
0
  6
ByLayer
 62
  256
370
   25
100
AcDbLine
 10
162
 20
20
 11
162
 21
24
  0
LINE
  5
D9
100
AcDbEntity
  8
0
  6
ByLayer
 62
  256
370
   25
100
AcDbLine
 10
163
 20
20
 11
163
 21
24
  0
LINE
  5
DA
100
AcDbEntity
  8
0
  6
ByLayer
 62
  256
370
   25
100
AcDbLine
 10
164
 20
20
 11
164
 21
24
  0
LINE
  5
DB
100
AcDbEntity
  8
0
  6
ByLayer
 62
  256
370
   25
100
AcDbLine
 10
165
 20
20
 11
165
 21
24
  0
LINE
  5
DC
100
AcDbEntity
  8
0
  6
ByLayer
 62
  256
370
   25
100
AcDbLine
 10
166
 20
20
 11
166
 21
24
  0
LINE
  5
DD
100
AcDbEntity
  8
0
  6
ByLayer
 62
  256
370
   25
100
AcDbLine
 10
167
 20
20
 11
167
 21
24
  0
LINE
  5
DE
100
AcDbEntity
  8
0
  6
ByLayer
 62
  256
370
   25
100
AcDbLine
 10
168
 20
20
 11
168
 21
24
  0
LINE
  5
DF
100
AcDbEntity
  8
0
  6
ByLayer
 62
  256
370
   25
100
AcDbLine
 10
169
 20
20
 11
169
 21
24
  0
LINE
  5
E0
100
AcDbEntity
  8
0
  6
ByLayer
 62
  256
370
   25
100
AcDbLine
 10
170
 20
20
 11
170
 21
24
  0
LINE
  5
E1
100
AcDbEntity
  8
0
  6
ByLayer
 62
  256
370
   25
100
AcDbLine
 10
171
 20
20
 11
171
 21
24
  0
LINE
  5
E2
100
AcDbEntity
  8
0
  6
ByLayer
 62
  256
370
   25
100
AcDbLine
 10
172
 20
20
 11
172
 21
24
  0
LINE
  5
E3
100
AcDbEntity
  8
0
  6
ByLayer
 62
  256
370
   25
100
AcDbLine
 10
173
 20
20
 11
173
 21
24
  0
LINE
  5
E4
100
AcDbEntity
  8
0
  6
ByLayer
 62
  256
370
   25
100
AcDbLine
 10
174
 20
20
 11
174
 21
24
  0
LINE
  5
E5
100
AcDbEntity
  8
0
  6
ByLayer
 62
  256
370
   25
100
AcDbLine
 10
175
 20
20
 11
175
 21
24
  0
LINE
  5
E6
100
AcDbEntity
  8
0
  6
ByLayer
 62
  256
370
   25
100
AcDbLine
 10
176
 20
20
 11
176
 21
24
  0
LINE
  5
E7
100
AcDbEntity
  8
0
  6
ByLayer
 62
  256
370
   25
100
AcDbLine
 10
177
 20
20
 11
177
 21
24
  0
LINE
  5
E8
100
AcDbEntity
  8
0
  6
ByLayer
 62
  256
370
   25
100
AcDbLine
 10
178
 20
20
 11
178
 21
24
  0
LINE
  5
E9
100
AcDbEntity
  8
0
  6
ByLayer
 62
  256
370
   25
100
AcDbLine
 10
179
 20
20
 11
179
 21
24
  0
LINE
  5
EA
100
AcDbEntity
  8
0
  6
ByLayer
 62
  256
370
   25
100
AcDbLine
 10
180
 20
20
 11
180
 21
24
  0
LINE
  5
EB
100
AcDbEntity
  8
0
  6
ByLayer
 62
  256
370
   25
100
AcDbLine
 10
181
 20
20
 11
181
 21
24
  0
LINE
  5
EC
100
AcDbEntity
  8
0
  6
ByLayer
 62
  256
370
   25
100
AcDbLine
 10
182
 20
20
 11
182
 21
24
  0
LINE
  5
ED
100
AcDbEntity
  8
0
  6
ByLayer
 62
  256
370
   25
100
AcDbLine
 10
183
 20
20
 11
183
 21
24
  0
LINE
  5
EE
100
AcDbEntity
  8
0
  6
ByLayer
 62
  256
370
   25
100
AcDbLine
 10
184
 20
20
 11
184
 21
24
  0
LINE
  5
EF
100
AcDbEntity
  8
0
  6
ByLayer
 62
  256
370
   25
100
AcDbLine
 10
185
 20
20
 11
185
 21
24
  0
LINE
  5
F0
100
AcDbEntity
  8
0
  6
ByLayer
 62
  256
370
   25
100
AcDbLine
 10
186
 20
20
 11
186
 21
24
  0
LINE
  5
F1
100
AcDbEntity
  8
0
  6
ByLayer
 62
  256
370
   25
100
AcDbLine
 10
187
 20
20
 11
187
 21
24
  0
LINE
  5
F2
100
AcDbEntity
  8
0
  6
ByLayer
 62
  256
370
   25
100
AcDbLine
 10
188
 20
20
 11
188
 21
24
  0
LINE
  5
F3
100
AcDbEntity
  8
0
  6
ByLayer
 62
  256
370
   25
100
AcDbLine
 10
189
 20
20
 11
189
 21
24
  0
LINE
  5
F4
100
AcDbEntity
  8
0
  6
ByLayer
 62
  256
370
   25
100
AcDbLine
 10
190
 20
20
 11
190
 21
24
  0
LINE
  5
F5
100
AcDbEntity
  8
0
  6
ByLayer
 62
  256
370
   25
100
AcDbLine
 10
191
 20
20
 11
191
 21
24
  0
LINE
  5
F6
100
AcDbEntity
  8
0
  6
ByLayer
 62
  256
370
   25
100
AcDbLine
 10
192
 20
20
 11
192
 21
24
  0
LINE
  5
F7
100
AcDbEntity
  8
0
  6
ByLayer
 62
  256
370
   25
100
AcDbLine
 10
193
 20
20
 11
193
 21
24
  0
LINE
  5
F8
100
AcDbEntity
  8
0
  6
ByLayer
 62
  256
370
   25
100
AcDbLine
 10
194
 20
20
 11
194
 21
24
  0
LINE
  5
F9
100
AcDbEntity
  8
0
  6
ByLayer
 62
  256
370
   25
100
AcDbLine
 10
195
 20
20
 11
195
 21
24
  0
LINE
  5
FA
100
AcDbEntity
  8
0
  6
ByLayer
 62
  256
370
   25
100
AcDbLine
 10
196
 20
20
 11
196
 21
24
  0
LINE
  5
FB
100
AcDbEntity
  8
0
  6
ByLayer
 62
  256
370
   25
100
AcDbLine
 10
197
 20
20
 11
197
 21
24
  0
LINE
  5
FC
100
AcDbEntity
  8
0
  6
ByLayer
 62
  256
370
   25
100
AcDbLine
 10
198
 20
20
 11
198
 21
24
  0
LINE
  5
FD
100
AcDbEntity
  8
0
  6
ByLayer
 62
  256
370
   25
100
AcDbLine
 10
199
 20
20
 11
199
 21
24
  0
LINE
  5
FE
100
AcDbEntity
  8
0
  6
ByLayer
 62
  256
370
   25
100
AcDbLine
 10
200
 20
20
 11
200
 21
24
  0
LINE
  5
FF
100
AcDbEntity
  8
0
  6
ByLayer
 62
  256
370
   25
100
AcDbLine
 10
201
 20
20
 11
201
 21
24
  0
LINE
  5
100
100
AcDbEntity
  8
0
  6
ByLayer
 62
  256
370
   25
100
AcDbLine
 10
202
 20
20
 11
202
 21
24
  0
LINE
  5
101
100
AcDbEntity
  8
0
  6
ByLayer
 62
  256
370
   25
100
AcDbLine
 10
203
 20
20
 11
203
 21
24
  0
LINE
  5
102
100
AcDbEntity
  8
0
  6
ByLayer
 62
  256
370
   25
100
AcDbLine
 10
204
 20
20
 11
204
 21
24
  0
LINE
  5
103
100
AcDbEntity
  8
0
  6
ByLayer
 62
  256
370
   25
100
AcDbLine
 10
205
 20
20
 11
205
 21
24
  0
LINE
  5
104
100
AcDbEntity
  8
0
  6
ByLayer
 62
  256
370
   25
100
AcDbLine
 10
206
 20
20
 11
206
 21
24
  0
LINE
  5
105
100
AcDbEntity
  8
0
  6
ByLayer
 62
  256
370
   25
100
AcDbLine
 10
207
 20
20
 11
207
 21
24
  0
LINE
  5
106
100
AcDbEntity
  8
0
  6
ByLayer
 62
  256
370
   25
100
AcDbLine
 10
208
 20
20
 11
208
 21
24
  0
LINE
  5
107
100
AcDbEntity
  8
0
  6
ByLayer
 62
  256
370
   25
100
AcDbLine
 10
209
 20
20
 11
209
 21
24
  0
LINE
  5
108
100
AcDbEntity
  8
0
  6
ByLayer
 62
  256
370
   25
100
AcDbLine
 10
210
 20
20
 11
210
 21
24
  0
LINE
  5
109
100
AcDbEntity
  8
0
  6
ByLayer
 62
  256
370
   25
100
AcDbLine
 10
211
 20
20
 11
211
 21
24
  0
LINE
  5
10A
100
AcDbEntity
  8
0
  6
ByLayer
 62
  256
370
   25
100
AcDbLine
 10
212
 20
20
 11
212
 21
24
  0
LINE
  5
10B
100
AcDbEntity
  8
0
  6
ByLayer
 62
  256
370
   25
100
AcDbLine
 10
213
 20
20
 11
213
 21
24
  0
LINE
  5
10C
100
AcDbEntity
  8
0
  6
ByLayer
 62
  256
370
   25
100
AcDbLine
 10
214
 20
20
 11
214
 21
24
  0
LINE
  5
10D
100
AcDbEntity
  8
0
  6
ByLayer
 62
  256
370
   25
100
AcDbLine
 10
215
 20
20
 11
215
 21
24
  0
LINE
  5
10E
100
AcDbEntity
  8
0
  6
ByLayer
 62
  256
370
   25
100
AcDbLine
 10
216
 20
20
 11
216
 21
24
  0
LINE
  5
10F
100
AcDbEntity
  8
0
  6
ByLayer
 62
  256
370
   25
100
AcDbLine
 10
217
 20
20
 11
217
 21
24
  0
LINE
  5
110
100
AcDbEntity
  8
0
  6
ByLayer
 62
  256
370
   25
100
AcDbLine
 10
218
 20
20
 11
218
 21
24
  0
LINE
  5
111
100
AcDbEntity
  8
0
  6
ByLayer
 62
  256
370
   25
100
AcDbLine
 10
219
 20
20
 11
219
 21
24
  0
LINE
  5
112
100
AcDbEntity
  8
0
  6
ByLayer
 62
  256
370
   25
100
AcDbLine
 10
220
 20
20
 11
220
 21
24
  0
LINE
  5
113
100
AcDbEntity
  8
0
  6
ByLayer
 62
  256
370
   25
100
AcDbLine
 10
221
 20
20
 11
221
 21
24
  0
LINE
  5
114
100
AcDbEntity
  8
0
  6
ByLayer
 62
  256
370
   25
100
AcDbLine
 10
222
 20
20
 11
222
 21
24
  0
LINE
  5
115
100
AcDbEntity
  8
0
  6
ByLayer
 62
  256
370
   25
100
AcDbLine
 10
223
 20
20
 11
223
 21
24
  0
LINE
  5
116
100
AcDbEntity
  8
0
  6
ByLayer
 62
  256
370
   25
100
AcDbLine
 10
224
 20
20
 11
224
 21
24
  0
LINE
  5
117
100
AcDbEntity
  8
0
  6
ByLayer
 62
  256
370
   25
100
AcDbLine
 10
225
 20
20
 11
225
 21
24
  0
LINE
  5
118
100
AcDbEntity
  8
0
  6
ByLayer
 62
  256
370
   25
100
AcDbLine
 10
226
 20
20
 11
226
 21
24
  0
LINE
  5
119
100
AcDbEntity
  8
0
  6
ByLayer
 62
  256
370
   25
100
AcDbLine
 10
227
 20
20
 11
227
 21
24
  0
LINE
  5
11A
100
AcDbEntity
  8
0
  6
ByLayer
 62
  256
370
   25
100
AcDbLine
 10
228
 20
20
 11
228
 21
24
  0
LINE
  5
11B
100
AcDbEntity
  8
0
  6
ByLayer
 62
  256
370
   25
100
AcDbLine
 10
229
 20
20
 11
229
 21
24
  0
LINE
  5
11C
100
AcDbEntity
  8
0
  6
ByLayer
 62
  256
370
   25
100
AcDbLine
 10
230
 20
20
 11
230
 21
24
  0
LINE
  5
11D
100
AcDbEntity
  8
0
  6
ByLayer
 62
  256
370
   25
100
AcDbLine
 10
231
 20
20
 11
231
 21
24
  0
LINE
  5
11E
100
AcDbEntity
  8
0
  6
ByLayer
 62
  256
370
   25
100
AcDbLine
 10
232
 20
20
 11
232
 21
24
  0
LINE
  5
11F
100
AcDbEntity
  8
0
  6
ByLayer
 62
  256
370
   25
100
AcDbLine
 10
233
 20
20
 11
233
 21
24
  0
LINE
  5
120
100
AcDbEntity
  8
0
  6
ByLayer
 62
  256
370
   25
100
AcDbLine
 10
234
 20
20
 11
234
 21
24
  0
LINE
  5
121
100
AcDbEntity
  8
0
  6
ByLayer
 62
  256
370
   25
100
AcDbLine
 10
235
 20
20
 11
235
 21
24
  0
LINE
  5
122
100
AcDbEntity
  8
0
  6
ByLayer
 62
  256
370
   25
100
AcDbLine
 10
236
 20
20
 11
236
 21
24
  0
LINE
  5
123
100
AcDbEntity
  8
0
  6
ByLayer
 62
  256
370
   25
100
AcDbLine
 10
237
 20
20
 11
237
 21
24
  0
LINE
  5
124
100
AcDbEntity
  8
0
  6
ByLayer
 62
  256
370
   25
100
AcDbLine
 10
238
 20
20
 11
238
 21
24
  0
LINE
  5
125
100
AcDbEntity
  8
0
  6
ByLayer
 62
  256
370
   25
100
AcDbLine
 10
239
 20
20
 11
239
 21
24
  0
LINE
  5
126
100
AcDbEntity
  8
0
  6
ByLayer
 62
  256
370
   25
100
AcDbLine
 10
240
 20
20
 11
240
 21
24
  0
LINE
  5
127
100
AcDbEntity
  8
0
  6
ByLayer
 62
  256
370
   25
100
AcDbLine
 10
241
 20
20
 11
241
 21
24
  0
LINE
  5
128
100
AcDbEntity
  8
0
  6
ByLayer
 62
  256
370
   25
100
AcDbLine
 10
242
 20
20
 11
242
 21
24
  0
LINE
  5
129
100
AcDbEntity
  8
0
  6
ByLayer
 62
  256
370
   25
100
AcDbLine
 10
243
 20
20
 11
243
 21
24
  0
LINE
  5
12A
100
AcDbEntity
  8
0
  6
ByLayer
 62
  256
370
   25
100
AcDbLine
 10
244
 20
20
 11
244
 21
24
  0
LINE
  5
12B
100
AcDbEntity
  8
0
  6
ByLayer
 62
  256
370
   25
100
AcDbLine
 10
245
 20
20
 11
245
 21
24
  0
LINE
  5
12C
100
AcDbEntity
  8
0
  6
ByLayer
 62
  256
370
   25
100
AcDbLine
 10
246
 20
20
 11
246
 21
24
  0
LINE
  5
12D
100
AcDbEntity
  8
0
  6
ByLayer
 62
  256
370
   25
100
AcDbLine
 10
247
 20
20
 11
247
 21
24
  0
LINE
  5
12E
100
AcDbEntity
  8
0
  6
ByLayer
 62
  256
370
   25
100
AcDbLine
 10
248
 20
20
 11
248
 21
24
  0
LINE
  5
12F
100
AcDbEntity
  8
0
  6
ByLayer
 62
  256
370
   25
100
AcDbLine
 10
249
 20
20
 11
249
 21
24
  0
LINE
  5
130
100
AcDbEntity
  8
0
  6
ByLayer
 62
  256
370
   25
100
AcDbLine
 10
250
 20
20
 11
250
 21
24
  0
LINE
  5
131
100
AcDbEntity
  8
0
  6
ByLayer
 62
  256
370
   25
100
AcDbLine
 10
251
 20
20
 11
251
 21
24
  0
LINE
  5
132
100
AcDbEntity
  8
0
  6
ByLayer
 62
  256
370
   25
100
AcDbLine
 10
252
 20
20
 11
252
 21
24
  0
LINE
  5
133
100
AcDbEntity
  8
0
  6
ByLayer
 62
  256
370
   25
100
AcDbLine
 10
253
 20
20
 11
253
 21
24
  0
LINE
  5
134
100
AcDbEntity
  8
0
  6
ByLayer
 62
  256
370
   25
100
AcDbLine
 10
254
 20
20
 11
254
 21
24
  0
LINE
  5
135
100
AcDbEntity
  8
0
  6
ByLayer
 62
  256
370
   25
100
AcDbLine
 10
255
 20
20
 11
255
 21
24
  0
LINE
  5
136
100
AcDbEntity
  8
0
  6
ByLayer
 62
  256
370
   25
100
AcDbLine
 10
256
 20
20
 11
256
 21
24
  0
LINE
  5
137
100
AcDbEntity
  8
0
  6
ByLayer
 62
  256
370
   25
100
AcDbLine
 10
257
 20
20
 11
257
 21
24
  0
LINE
  5
138
100
AcDbEntity
  8
0
  6
ByLayer
 62
  256
370
   25
100
AcDbLine
 10
258
 20
20
 11
258
 21
24
  0
LINE
  5
139
100
AcDbEntity
  8
0
  6
ByLayer
 62
  256
370
   25
100
AcDbLine
 10
259
 20
20
 11
259
 21
24
  0
LINE
  5
13A
100
AcDbEntity
  8
0
  6
ByLayer
 62
  256
370
   25
100
AcDbLine
 10
260
 20
20
 11
260
 21
24
  0
LINE
  5
13B
100
AcDbEntity
  8
0
  6
ByLayer
 62
  256
370
   25
100
AcDbLine
 10
261
 20
20
 11
261
 21
24
  0
LINE
  5
13C
100
AcDbEntity
  8
0
  6
ByLayer
 62
  256
370
   25
100
AcDbLine
 10
262
 20
20
 11
262
 21
24
  0
LINE
  5
13D
100
AcDbEntity
  8
0
  6
ByLayer
 62
  256
370
   25
100
AcDbLine
 10
263
 20
20
 11
263
 21
24
  0
LINE
  5
13E
100
AcDbEntity
  8
0
  6
ByLayer
 62
  256
370
   25
100
AcDbLine
 10
264
 20
20
 11
264
 21
24
  0
LINE
  5
13F
100
AcDbEntity
  8
0
  6
ByLayer
 62
  256
370
   25
100
AcDbLine
 10
265
 20
20
 11
265
 21
24
  0
LINE
  5
140
100
AcDbEntity
  8
0
  6
ByLayer
 62
  256
370
   25
100
AcDbLine
 10
266
 20
20
 11
266
 21
24
  0
LINE
  5
141
100
AcDbEntity
  8
0
  6
ByLayer
 62
  256
370
   25
100
AcDbLine
 10
267
 20
20
 11
267
 21
24
  0
LINE
  5
142
100
AcDbEntity
  8
0
  6
ByLayer
 62
  256
370
   25
100
AcDbLine
 10
268
 20
20
 11
268
 21
24
  0
LINE
  5
143
100
AcDbEntity
  8
0
  6
ByLayer
 62
  256
370
   25
100
AcDbLine
 10
269
 20
20
 11
269
 21
24
  0
LINE
  5
144
100
AcDbEntity
  8
0
  6
ByLayer
 62
  256
370
   25
100
AcDbLine
 10
270
 20
20
 11
270
 21
24
  0
LINE
  5
145
100
AcDbEntity
  8
0
  6
ByLayer
 62
  256
370
   25
100
AcDbLine
 10
271
 20
20
 11
271
 21
24
  0
LINE
  5
146
100
AcDbEntity
  8
0
  6
ByLayer
 62
  256
370
   25
100
AcDbLine
 10
272
 20
20
 11
272
 21
24
  0
LINE
  5
147
100
AcDbEntity
  8
0
  6
ByLayer
 62
  256
370
   25
100
AcDbLine
 10
273
 20
20
 11
273
 21
24
  0
LINE
  5
148
100
AcDbEntity
  8
0
  6
ByLayer
 62
  256
370
   25
100
AcDbLine
 10
274
 20
20
 11
274
 21
24
  0
LINE
  5
149
100
AcDbEntity
  8
0
  6
ByLayer
 62
  256
370
   25
100
AcDbLine
 10
275
 20
20
 11
275
 21
24
  0
LINE
  5
14A
100
AcDbEntity
  8
0
  6
ByLayer
 62
  256
370
   25
100
AcDbLine
 10
276
 20
20
 11
276
 21
24
  0
LINE
  5
14B
100
AcDbEntity
  8
0
  6
ByLayer
 62
  256
370
   25
100
AcDbLine
 10
277
 20
20
 11
277
 21
24
  0
LINE
  5
14C
100
AcDbEntity
  8
0
  6
ByLayer
 62
  256
370
   25
100
AcDbLine
 10
278
 20
20
 11
278
 21
24
  0
LINE
  5
14D
100
AcDbEntity
  8
0
  6
ByLayer
 62
  256
370
   25
100
AcDbLine
 10
279
 20
20
 11
279
 21
24
  0
LINE
  5
14E
100
AcDbEntity
  8
0
  6
ByLayer
 62
  256
370
   25
100
AcDbLine
 10
280
 20
20
 11
280
 21
24
  0
LINE
  5
14F
100
AcDbEntity
  8
0
  6
ByLayer
 62
  256
370
   25
100
AcDbLine
 10
281
 20
20
 11
281
 21
24
  0
LINE
  5
150
100
AcDbEntity
  8
0
  6
ByLayer
 62
  256
370
   25
100
AcDbLine
 10
282
 20
20
 11
282
 21
24
  0
LINE
  5
151
100
AcDbEntity
  8
0
  6
ByLayer
 62
  256
370
   25
100
AcDbLine
 10
283
 20
20
 11
283
 21
24
  0
LINE
  5
152
100
AcDbEntity
  8
0
  6
ByLayer
 62
  256
370
   25
100
AcDbLine
 10
284
 20
20
 11
284
 21
24
  0
LINE
  5
153
100
AcDbEntity
  8
0
  6
ByLayer
 62
  256
370
   25
100
AcDbLine
 10
285
 20
20
 11
285
 21
24
  0
LINE
  5
154
100
AcDbEntity
  8
0
  6
ByLayer
 62
  256
370
   25
100
AcDbLine
 10
286
 20
20
 11
286
 21
24
  0
LINE
  5
155
100
AcDbEntity
  8
0
  6
ByLayer
 62
  256
370
   25
100
AcDbLine
 10
287
 20
20
 11
287
 21
24
  0
LINE
  5
156
100
AcDbEntity
  8
0
  6
ByLayer
 62
  256
370
   25
100
AcDbLine
 10
288
 20
20
 11
288
 21
24
  0
LINE
  5
157
100
AcDbEntity
  8
0
  6
ByLayer
 62
  256
370
   25
100
AcDbLine
 10
289
 20
20
 11
289
 21
24
  0
LINE
  5
158
100
AcDbEntity
  8
0
  6
ByLayer
 62
  256
370
   25
100
AcDbLine
 10
290
 20
20
 11
290
 21
24
  0
LINE
  5
159
100
AcDbEntity
  8
0
  6
ByLayer
 62
  256
370
   25
100
AcDbLine
 10
25
 20
20
 11
25
 21
25
  0
LINE
  5
15A
100
AcDbEntity
  8
0
  6
ByLayer
 62
  256
370
   25
100
AcDbLine
 10
35
 20
20
 11
35
 21
25
  0
LINE
  5
15B
100
AcDbEntity
  8
0
  6
ByLayer
 62
  256
370
   25
100
AcDbLine
 10
45
 20
20
 11
45
 21
25
  0
LINE
  5
15C
100
AcDbEntity
  8
0
  6
ByLayer
 62
  256
370
   25
100
AcDbLine
 10
55
 20
20
 11
55
 21
25
  0
LINE
  5
15D
100
AcDbEntity
  8
0
  6
ByLayer
 62
  256
370
   25
100
AcDbLine
 10
65
 20
20
 11
65
 21
25
  0
LINE
  5
15E
100
AcDbEntity
  8
0
  6
ByLayer
 62
  256
370
   25
100
AcDbLine
 10
75
 20
20
 11
75
 21
25
  0
LINE
  5
15F
100
AcDbEntity
  8
0
  6
ByLayer
 62
  256
370
   25
100
AcDbLine
 10
85
 20
20
 11
85
 21
25
  0
LINE
  5
160
100
AcDbEntity
  8
0
  6
ByLayer
 62
  256
370
   25
100
AcDbLine
 10
95
 20
20
 11
95
 21
25
  0
LINE
  5
161
100
AcDbEntity
  8
0
  6
ByLayer
 62
  256
370
   25
100
AcDbLine
 10
105
 20
20
 11
105
 21
25
  0
LINE
  5
162
100
AcDbEntity
  8
0
  6
ByLayer
 62
  256
370
   25
100
AcDbLine
 10
115
 20
20
 11
115
 21
25
  0
LINE
  5
163
100
AcDbEntity
  8
0
  6
ByLayer
 62
  256
370
   25
100
AcDbLine
 10
125
 20
20
 11
125
 21
25
  0
LINE
  5
164
100
AcDbEntity
  8
0
  6
ByLayer
 62
  256
370
   25
100
AcDbLine
 10
135
 20
20
 11
135
 21
25
  0
LINE
  5
165
100
AcDbEntity
  8
0
  6
ByLayer
 62
  256
370
   25
100
AcDbLine
 10
145
 20
20
 11
145
 21
25
  0
LINE
  5
166
100
AcDbEntity
  8
0
  6
ByLayer
 62
  256
370
   25
100
AcDbLine
 10
155
 20
20
 11
155
 21
25
  0
LINE
  5
167
100
AcDbEntity
  8
0
  6
ByLayer
 62
  256
370
   25
100
AcDbLine
 10
165
 20
20
 11
165
 21
25
  0
LINE
  5
168
100
AcDbEntity
  8
0
  6
ByLayer
 62
  256
370
   25
100
AcDbLine
 10
175
 20
20
 11
175
 21
25
  0
LINE
  5
169
100
AcDbEntity
  8
0
  6
ByLayer
 62
  256
370
   25
100
AcDbLine
 10
185
 20
20
 11
185
 21
25
  0
LINE
  5
16A
100
AcDbEntity
  8
0
  6
ByLayer
 62
  256
370
   25
100
AcDbLine
 10
195
 20
20
 11
195
 21
25
  0
LINE
  5
16B
100
AcDbEntity
  8
0
  6
ByLayer
 62
  256
370
   25
100
AcDbLine
 10
205
 20
20
 11
205
 21
25
  0
LINE
  5
16C
100
AcDbEntity
  8
0
  6
ByLayer
 62
  256
370
   25
100
AcDbLine
 10
215
 20
20
 11
215
 21
25
  0
LINE
  5
16D
100
AcDbEntity
  8
0
  6
ByLayer
 62
  256
370
   25
100
AcDbLine
 10
225
 20
20
 11
225
 21
25
  0
LINE
  5
16E
100
AcDbEntity
  8
0
  6
ByLayer
 62
  256
370
   25
100
AcDbLine
 10
235
 20
20
 11
235
 21
25
  0
LINE
  5
16F
100
AcDbEntity
  8
0
  6
ByLayer
 62
  256
370
   25
100
AcDbLine
 10
245
 20
20
 11
245
 21
25
  0
LINE
  5
170
100
AcDbEntity
  8
0
  6
ByLayer
 62
  256
370
   25
100
AcDbLine
 10
255
 20
20
 11
255
 21
25
  0
LINE
  5
171
100
AcDbEntity
  8
0
  6
ByLayer
 62
  256
370
   25
100
AcDbLine
 10
265
 20
20
 11
265
 21
25
  0
LINE
  5
172
100
AcDbEntity
  8
0
  6
ByLayer
 62
  256
370
   25
100
AcDbLine
 10
275
 20
20
 11
275
 21
25
  0
LINE
  5
173
100
AcDbEntity
  8
0
  6
ByLayer
 62
  256
370
   25
100
AcDbLine
 10
285
 20
20
 11
285
 21
25
  0
LINE
  5
174
100
AcDbEntity
  8
0
  6
ByLayer
 62
  256
370
   25
100
AcDbLine
 10
30
 20
20
 11
30
 21
26
  0
LINE
  5
175
100
AcDbEntity
  8
0
  6
ByLayer
 62
  256
370
   25
100
AcDbLine
 10
40
 20
20
 11
40
 21
26
  0
LINE
  5
176
100
AcDbEntity
  8
0
  6
ByLayer
 62
  256
370
   25
100
AcDbLine
 10
50
 20
20
 11
50
 21
26
  0
LINE
  5
177
100
AcDbEntity
  8
0
  6
ByLayer
 62
  256
370
   25
100
AcDbLine
 10
60
 20
20
 11
60
 21
26
  0
LINE
  5
178
100
AcDbEntity
  8
0
  6
ByLayer
 62
  256
370
   25
100
AcDbLine
 10
70
 20
20
 11
70
 21
26
  0
LINE
  5
179
100
AcDbEntity
  8
0
  6
ByLayer
 62
  256
370
   25
100
AcDbLine
 10
80
 20
20
 11
80
 21
26
  0
LINE
  5
17A
100
AcDbEntity
  8
0
  6
ByLayer
 62
  256
370
   25
100
AcDbLine
 10
90
 20
20
 11
90
 21
26
  0
LINE
  5
17B
100
AcDbEntity
  8
0
  6
ByLayer
 62
  256
370
   25
100
AcDbLine
 10
100
 20
20
 11
100
 21
26
  0
LINE
  5
17C
100
AcDbEntity
  8
0
  6
ByLayer
 62
  256
370
   25
100
AcDbLine
 10
110
 20
20
 11
110
 21
26
  0
LINE
  5
17D
100
AcDbEntity
  8
0
  6
ByLayer
 62
  256
370
   25
100
AcDbLine
 10
120
 20
20
 11
120
 21
26
  0
LINE
  5
17E
100
AcDbEntity
  8
0
  6
ByLayer
 62
  256
370
   25
100
AcDbLine
 10
130
 20
20
 11
130
 21
26
  0
LINE
  5
17F
100
AcDbEntity
  8
0
  6
ByLayer
 62
  256
370
   25
100
AcDbLine
 10
140
 20
20
 11
140
 21
26
  0
LINE
  5
180
100
AcDbEntity
  8
0
  6
ByLayer
 62
  256
370
   25
100
AcDbLine
 10
150
 20
20
 11
150
 21
26
  0
LINE
  5
181
100
AcDbEntity
  8
0
  6
ByLayer
 62
  256
370
   25
100
AcDbLine
 10
160
 20
20
 11
160
 21
26
  0
LINE
  5
182
100
AcDbEntity
  8
0
  6
ByLayer
 62
  256
370
   25
100
AcDbLine
 10
170
 20
20
 11
170
 21
26
  0
LINE
  5
183
100
AcDbEntity
  8
0
  6
ByLayer
 62
  256
370
   25
100
AcDbLine
 10
180
 20
20
 11
180
 21
26
  0
LINE
  5
184
100
AcDbEntity
  8
0
  6
ByLayer
 62
  256
370
   25
100
AcDbLine
 10
190
 20
20
 11
190
 21
26
  0
LINE
  5
185
100
AcDbEntity
  8
0
  6
ByLayer
 62
  256
370
   25
100
AcDbLine
 10
200
 20
20
 11
200
 21
26
  0
LINE
  5
186
100
AcDbEntity
  8
0
  6
ByLayer
 62
  256
370
   25
100
AcDbLine
 10
210
 20
20
 11
210
 21
26
  0
LINE
  5
187
100
AcDbEntity
  8
0
  6
ByLayer
 62
  256
370
   25
100
AcDbLine
 10
220
 20
20
 11
220
 21
26
  0
LINE
  5
188
100
AcDbEntity
  8
0
  6
ByLayer
 62
  256
370
   25
100
AcDbLine
 10
230
 20
20
 11
230
 21
26
  0
LINE
  5
189
100
AcDbEntity
  8
0
  6
ByLayer
 62
  256
370
   25
100
AcDbLine
 10
240
 20
20
 11
240
 21
26
  0
LINE
  5
18A
100
AcDbEntity
  8
0
  6
ByLayer
 62
  256
370
   25
100
AcDbLine
 10
250
 20
20
 11
250
 21
26
  0
LINE
  5
18B
100
AcDbEntity
  8
0
  6
ByLayer
 62
  256
370
   25
100
AcDbLine
 10
260
 20
20
 11
260
 21
26
  0
LINE
  5
18C
100
AcDbEntity
  8
0
  6
ByLayer
 62
  256
370
   25
100
AcDbLine
 10
270
 20
20
 11
270
 21
26
  0
LINE
  5
18D
100
AcDbEntity
  8
0
  6
ByLayer
 62
  256
370
   25
100
AcDbLine
 10
280
 20
20
 11
280
 21
26
  0
LINE
  5
18E
100
AcDbEntity
  8
0
  6
ByLayer
 62
  256
370
   25
100
AcDbLine
 10
290
 20
20
 11
290
 21
26
  0
LINE
  5
18F
100
AcDbEntity
  8
0
  6
ByLayer
 62
  256
370
   25
100
AcDbLine
 10
20
 20
24
 11
24
 21
24
  0
LINE
  5
190
100
AcDbEntity
  8
0
  6
ByLayer
 62
  256
370
   25
100
AcDbLine
 10
20
 20
26
 11
24
 21
26
  0
LINE
  5
191
100
AcDbEntity
  8
0
  6
ByLayer
 62
  256
370
   25
100
AcDbLine
 10
20
 20
27
 11
24
 21
27
  0
LINE
  5
192
100
AcDbEntity
  8
0
  6
ByLayer
 62
  256
370
   25
100
AcDbLine
 10
20
 20
28
 11
24
 21
28
  0
LINE
  5
193
100
AcDbEntity
  8
0
  6
ByLayer
 62
  256
370
   25
100
AcDbLine
 10
20
 20
29
 11
24
 21
29
  0
LINE
  5
194
100
AcDbEntity
  8
0
  6
ByLayer
 62
  256
370
   25
100
AcDbLine
 10
20
 20
31
 11
24
 21
31
  0
LINE
  5
195
100
AcDbEntity
  8
0
  6
ByLayer
 62
  256
370
   25
100
AcDbLine
 10
20
 20
32
 11
24
 21
32
  0
LINE
  5
196
100
AcDbEntity
  8
0
  6
ByLayer
 62
  256
370
   25
100
AcDbLine
 10
20
 20
33
 11
24
 21
33
  0
LINE
  5
197
100
AcDbEntity
  8
0
  6
ByLayer
 62
  256
370
   25
100
AcDbLine
 10
20
 20
34
 11
24
 21
34
  0
LINE
  5
198
100
AcDbEntity
  8
0
  6
ByLayer
 62
  256
370
   25
100
AcDbLine
 10
20
 20
35
 11
24
 21
35
  0
LINE
  5
199
100
AcDbEntity
  8
0
  6
ByLayer
 62
  256
370
   25
100
AcDbLine
 10
20
 20
36
 11
24
 21
36
  0
LINE
  5
19A
100
AcDbEntity
  8
0
  6
ByLayer
 62
  256
370
   25
100
AcDbLine
 10
20
 20
37
 11
24
 21
37
  0
LINE
  5
19B
100
AcDbEntity
  8
0
  6
ByLayer
 62
  256
370
   25
100
AcDbLine
 10
20
 20
38
 11
24
 21
38
  0
LINE
  5
19C
100
AcDbEntity
  8
0
  6
ByLayer
 62
  256
370
   25
100
AcDbLine
 10
20
 20
39
 11
24
 21
39
  0
LINE
  5
19D
100
AcDbEntity
  8
0
  6
ByLayer
 62
  256
370
   25
100
AcDbLine
 10
20
 20
40
 11
24
 21
40
  0
LINE
  5
19E
100
AcDbEntity
  8
0
  6
ByLayer
 62
  256
370
   25
100
AcDbLine
 10
20
 20
41
 11
24
 21
41
  0
LINE
  5
19F
100
AcDbEntity
  8
0
  6
ByLayer
 62
  256
370
   25
100
AcDbLine
 10
20
 20
42
 11
24
 21
42
  0
LINE
  5
1A0
100
AcDbEntity
  8
0
  6
ByLayer
 62
  256
370
   25
100
AcDbLine
 10
20
 20
43
 11
24
 21
43
  0
LINE
  5
1A1
100
AcDbEntity
  8
0
  6
ByLayer
 62
  256
370
   25
100
AcDbLine
 10
20
 20
44
 11
24
 21
44
  0
LINE
  5
1A2
100
AcDbEntity
  8
0
  6
ByLayer
 62
  256
370
   25
100
AcDbLine
 10
20
 20
45
 11
24
 21
45
  0
LINE
  5
1A3
100
AcDbEntity
  8
0
  6
ByLayer
 62
  256
370
   25
100
AcDbLine
 10
20
 20
46
 11
24
 21
46
  0
LINE
  5
1A4
100
AcDbEntity
  8
0
  6
ByLayer
 62
  256
370
   25
100
AcDbLine
 10
20
 20
47
 11
24
 21
47
  0
LINE
  5
1A5
100
AcDbEntity
  8
0
  6
ByLayer
 62
  256
370
   25
100
AcDbLine
 10
20
 20
48
 11
24
 21
48
  0
LINE
  5
1A6
100
AcDbEntity
  8
0
  6
ByLayer
 62
  256
370
   25
100
AcDbLine
 10
20
 20
49
 11
24
 21
49
  0
LINE
  5
1A7
100
AcDbEntity
  8
0
  6
ByLayer
 62
  256
370
   25
100
AcDbLine
 10
20
 20
50
 11
24
 21
50
  0
LINE
  5
1A8
100
AcDbEntity
  8
0
  6
ByLayer
 62
  256
370
   25
100
AcDbLine
 10
20
 20
51
 11
24
 21
51
  0
LINE
  5
1A9
100
AcDbEntity
  8
0
  6
ByLayer
 62
  256
370
   25
100
AcDbLine
 10
20
 20
52
 11
24
 21
52
  0
LINE
  5
1AA
100
AcDbEntity
  8
0
  6
ByLayer
 62
  256
370
   25
100
AcDbLine
 10
20
 20
53
 11
24
 21
53
  0
LINE
  5
1AB
100
AcDbEntity
  8
0
  6
ByLayer
 62
  256
370
   25
100
AcDbLine
 10
20
 20
54
 11
24
 21
54
  0
LINE
  5
1AC
100
AcDbEntity
  8
0
  6
ByLayer
 62
  256
370
   25
100
AcDbLine
 10
20
 20
55
 11
24
 21
55
  0
LINE
  5
1AD
100
AcDbEntity
  8
0
  6
ByLayer
 62
  256
370
   25
100
AcDbLine
 10
20
 20
56
 11
24
 21
56
  0
LINE
  5
1AE
100
AcDbEntity
  8
0
  6
ByLayer
 62
  256
370
   25
100
AcDbLine
 10
20
 20
57
 11
24
 21
57
  0
LINE
  5
1AF
100
AcDbEntity
  8
0
  6
ByLayer
 62
  256
370
   25
100
AcDbLine
 10
20
 20
58
 11
24
 21
58
  0
LINE
  5
1B0
100
AcDbEntity
  8
0
  6
ByLayer
 62
  256
370
   25
100
AcDbLine
 10
20
 20
59
 11
24
 21
59
  0
LINE
  5
1B1
100
AcDbEntity
  8
0
  6
ByLayer
 62
  256
370
   25
100
AcDbLine
 10
20
 20
60
 11
24
 21
60
  0
LINE
  5
1B2
100
AcDbEntity
  8
0
  6
ByLayer
 62
  256
370
   25
100
AcDbLine
 10
20
 20
61
 11
24
 21
61
  0
LINE
  5
1B3
100
AcDbEntity
  8
0
  6
ByLayer
 62
  256
370
   25
100
AcDbLine
 10
20
 20
62
 11
24
 21
62
  0
LINE
  5
1B4
100
AcDbEntity
  8
0
  6
ByLayer
 62
  256
370
   25
100
AcDbLine
 10
20
 20
63
 11
24
 21
63
  0
LINE
  5
1B5
100
AcDbEntity
  8
0
  6
ByLayer
 62
  256
370
   25
100
AcDbLine
 10
20
 20
64
 11
24
 21
64
  0
LINE
  5
1B6
100
AcDbEntity
  8
0
  6
ByLayer
 62
  256
370
   25
100
AcDbLine
 10
20
 20
65
 11
24
 21
65
  0
LINE
  5
1B7
100
AcDbEntity
  8
0
  6
ByLayer
 62
  256
370
   25
100
AcDbLine
 10
20
 20
66
 11
24
 21
66
  0
LINE
  5
1B8
100
AcDbEntity
  8
0
  6
ByLayer
 62
  256
370
   25
100
AcDbLine
 10
20
 20
67
 11
24
 21
67
  0
LINE
  5
1B9
100
AcDbEntity
  8
0
  6
ByLayer
 62
  256
370
   25
100
AcDbLine
 10
20
 20
68
 11
24
 21
68
  0
LINE
  5
1BA
100
AcDbEntity
  8
0
  6
ByLayer
 62
  256
370
   25
100
AcDbLine
 10
20
 20
69
 11
24
 21
69
  0
LINE
  5
1BB
100
AcDbEntity
  8
0
  6
ByLayer
 62
  256
370
   25
100
AcDbLine
 10
20
 20
70
 11
24
 21
70
  0
LINE
  5
1BC
100
AcDbEntity
  8
0
  6
ByLayer
 62
  256
370
   25
100
AcDbLine
 10
20
 20
71
 11
24
 21
71
  0
LINE
  5
1BD
100
AcDbEntity
  8
0
  6
ByLayer
 62
  256
370
   25
100
AcDbLine
 10
20
 20
72
 11
24
 21
72
  0
LINE
  5
1BE
100
AcDbEntity
  8
0
  6
ByLayer
 62
  256
370
   25
100
AcDbLine
 10
20
 20
73
 11
24
 21
73
  0
LINE
  5
1BF
100
AcDbEntity
  8
0
  6
ByLayer
 62
  256
370
   25
100
AcDbLine
 10
20
 20
74
 11
24
 21
74
  0
LINE
  5
1C0
100
AcDbEntity
  8
0
  6
ByLayer
 62
  256
370
   25
100
AcDbLine
 10
20
 20
75
 11
24
 21
75
  0
LINE
  5
1C1
100
AcDbEntity
  8
0
  6
ByLayer
 62
  256
370
   25
100
AcDbLine
 10
20
 20
76
 11
24
 21
76
  0
LINE
  5
1C2
100
AcDbEntity
  8
0
  6
ByLayer
 62
  256
370
   25
100
AcDbLine
 10
20
 20
77
 11
24
 21
77
  0
LINE
  5
1C3
100
AcDbEntity
  8
0
  6
ByLayer
 62
  256
370
   25
100
AcDbLine
 10
20
 20
78
 11
24
 21
78
  0
LINE
  5
1C4
100
AcDbEntity
  8
0
  6
ByLayer
 62
  256
370
   25
100
AcDbLine
 10
20
 20
79
 11
24
 21
79
  0
LINE
  5
1C5
100
AcDbEntity
  8
0
  6
ByLayer
 62
  256
370
   25
100
AcDbLine
 10
20
 20
80
 11
24
 21
80
  0
LINE
  5
1C6
100
AcDbEntity
  8
0
  6
ByLayer
 62
  256
370
   25
100
AcDbLine
 10
20
 20
81
 11
24
 21
81
  0
LINE
  5
1C7
100
AcDbEntity
  8
0
  6
ByLayer
 62
  256
370
   25
100
AcDbLine
 10
20
 20
82
 11
24
 21
82
  0
LINE
  5
1C8
100
AcDbEntity
  8
0
  6
ByLayer
 62
  256
370
   25
100
AcDbLine
 10
20
 20
83
 11
24
 21
83
  0
LINE
  5
1C9
100
AcDbEntity
  8
0
  6
ByLayer
 62
  256
370
   25
100
AcDbLine
 10
20
 20
84
 11
24
 21
84
  0
LINE
  5
1CA
100
AcDbEntity
  8
0
  6
ByLayer
 62
  256
370
   25
100
AcDbLine
 10
20
 20
85
 11
24
 21
85
  0
LINE
  5
1CB
100
AcDbEntity
  8
0
  6
ByLayer
 62
  256
370
   25
100
AcDbLine
 10
20
 20
86
 11
24
 21
86
  0
LINE
  5
1CC
100
AcDbEntity
  8
0
  6
ByLayer
 62
  256
370
   25
100
AcDbLine
 10
20
 20
87
 11
24
 21
87
  0
LINE
  5
1CD
100
AcDbEntity
  8
0
  6
ByLayer
 62
  256
370
   25
100
AcDbLine
 10
20
 20
88
 11
24
 21
88
  0
LINE
  5
1CE
100
AcDbEntity
  8
0
  6
ByLayer
 62
  256
370
   25
100
AcDbLine
 10
20
 20
89
 11
24
 21
89
  0
LINE
  5
1CF
100
AcDbEntity
  8
0
  6
ByLayer
 62
  256
370
   25
100
AcDbLine
 10
20
 20
90
 11
24
 21
90
  0
LINE
  5
1D0
100
AcDbEntity
  8
0
  6
ByLayer
 62
  256
370
   25
100
AcDbLine
 10
20
 20
91
 11
24
 21
91
  0
LINE
  5
1D1
100
AcDbEntity
  8
0
  6
ByLayer
 62
  256
370
   25
100
AcDbLine
 10
20
 20
92
 11
24
 21
92
  0
LINE
  5
1D2
100
AcDbEntity
  8
0
  6
ByLayer
 62
  256
370
   25
100
AcDbLine
 10
20
 20
93
 11
24
 21
93
  0
LINE
  5
1D3
100
AcDbEntity
  8
0
  6
ByLayer
 62
  256
370
   25
100
AcDbLine
 10
20
 20
94
 11
24
 21
94
  0
LINE
  5
1D4
100
AcDbEntity
  8
0
  6
ByLayer
 62
  256
370
   25
100
AcDbLine
 10
20
 20
95
 11
24
 21
95
  0
LINE
  5
1D5
100
AcDbEntity
  8
0
  6
ByLayer
 62
  256
370
   25
100
AcDbLine
 10
20
 20
96
 11
24
 21
96
  0
LINE
  5
1D6
100
AcDbEntity
  8
0
  6
ByLayer
 62
  256
370
   25
100
AcDbLine
 10
20
 20
97
 11
24
 21
97
  0
LINE
  5
1D7
100
AcDbEntity
  8
0
  6
ByLayer
 62
  256
370
   25
100
AcDbLine
 10
20
 20
98
 11
24
 21
98
  0
LINE
  5
1D8
100
AcDbEntity
  8
0
  6
ByLayer
 62
  256
370
   25
100
AcDbLine
 10
20
 20
99
 11
24
 21
99
  0
LINE
  5
1D9
100
AcDbEntity
  8
0
  6
ByLayer
 62
  256
370
   25
100
AcDbLine
 10
20
 20
100
 11
24
 21
100
  0
LINE
  5
1DA
100
AcDbEntity
  8
0
  6
ByLayer
 62
  256
370
   25
100
AcDbLine
 10
20
 20
101
 11
24
 21
101
  0
LINE
  5
1DB
100
AcDbEntity
  8
0
  6
ByLayer
 62
  256
370
   25
100
AcDbLine
 10
20
 20
102
 11
24
 21
102
  0
LINE
  5
1DC
100
AcDbEntity
  8
0
  6
ByLayer
 62
  256
370
   25
100
AcDbLine
 10
20
 20
103
 11
24
 21
103
  0
LINE
  5
1DD
100
AcDbEntity
  8
0
  6
ByLayer
 62
  256
370
   25
100
AcDbLine
 10
20
 20
104
 11
24
 21
104
  0
LINE
  5
1DE
100
AcDbEntity
  8
0
  6
ByLayer
 62
  256
370
   25
100
AcDbLine
 10
20
 20
105
 11
24
 21
105
  0
LINE
  5
1DF
100
AcDbEntity
  8
0
  6
ByLayer
 62
  256
370
   25
100
AcDbLine
 10
20
 20
106
 11
24
 21
106
  0
LINE
  5
1E0
100
AcDbEntity
  8
0
  6
ByLayer
 62
  256
370
   25
100
AcDbLine
 10
20
 20
107
 11
24
 21
107
  0
LINE
  5
1E1
100
AcDbEntity
  8
0
  6
ByLayer
 62
  256
370
   25
100
AcDbLine
 10
20
 20
108
 11
24
 21
108
  0
LINE
  5
1E2
100
AcDbEntity
  8
0
  6
ByLayer
 62
  256
370
   25
100
AcDbLine
 10
20
 20
109
 11
24
 21
109
  0
LINE
  5
1E3
100
AcDbEntity
  8
0
  6
ByLayer
 62
  256
370
   25
100
AcDbLine
 10
20
 20
110
 11
24
 21
110
  0
LINE
  5
1E4
100
AcDbEntity
  8
0
  6
ByLayer
 62
  256
370
   25
100
AcDbLine
 10
20
 20
111
 11
24
 21
111
  0
LINE
  5
1E5
100
AcDbEntity
  8
0
  6
ByLayer
 62
  256
370
   25
100
AcDbLine
 10
20
 20
112
 11
24
 21
112
  0
LINE
  5
1E6
100
AcDbEntity
  8
0
  6
ByLayer
 62
  256
370
   25
100
AcDbLine
 10
20
 20
113
 11
24
 21
113
  0
LINE
  5
1E7
100
AcDbEntity
  8
0
  6
ByLayer
 62
  256
370
   25
100
AcDbLine
 10
20
 20
114
 11
24
 21
114
  0
LINE
  5
1E8
100
AcDbEntity
  8
0
  6
ByLayer
 62
  256
370
   25
100
AcDbLine
 10
20
 20
115
 11
24
 21
115
  0
LINE
  5
1E9
100
AcDbEntity
  8
0
  6
ByLayer
 62
  256
370
   25
100
AcDbLine
 10
20
 20
116
 11
24
 21
116
  0
LINE
  5
1EA
100
AcDbEntity
  8
0
  6
ByLayer
 62
  256
370
   25
100
AcDbLine
 10
20
 20
117
 11
24
 21
117
  0
LINE
  5
1EB
100
AcDbEntity
  8
0
  6
ByLayer
 62
  256
370
   25
100
AcDbLine
 10
20
 20
118
 11
24
 21
118
  0
LINE
  5
1EC
100
AcDbEntity
  8
0
  6
ByLayer
 62
  256
370
   25
100
AcDbLine
 10
20
 20
119
 11
24
 21
119
  0
LINE
  5
1ED
100
AcDbEntity
  8
0
  6
ByLayer
 62
  256
370
   25
100
AcDbLine
 10
20
 20
120
 11
24
 21
120
  0
LINE
  5
1EE
100
AcDbEntity
  8
0
  6
ByLayer
 62
  256
370
   25
100
AcDbLine
 10
20
 20
121
 11
24
 21
121
  0
LINE
  5
1EF
100
AcDbEntity
  8
0
  6
ByLayer
 62
  256
370
   25
100
AcDbLine
 10
20
 20
122
 11
24
 21
122
  0
LINE
  5
1F0
100
AcDbEntity
  8
0
  6
ByLayer
 62
  256
370
   25
100
AcDbLine
 10
20
 20
123
 11
24
 21
123
  0
LINE
  5
1F1
100
AcDbEntity
  8
0
  6
ByLayer
 62
  256
370
   25
100
AcDbLine
 10
20
 20
124
 11
24
 21
124
  0
LINE
  5
1F2
100
AcDbEntity
  8
0
  6
ByLayer
 62
  256
370
   25
100
AcDbLine
 10
20
 20
125
 11
24
 21
125
  0
LINE
  5
1F3
100
AcDbEntity
  8
0
  6
ByLayer
 62
  256
370
   25
100
AcDbLine
 10
20
 20
126
 11
24
 21
126
  0
LINE
  5
1F4
100
AcDbEntity
  8
0
  6
ByLayer
 62
  256
370
   25
100
AcDbLine
 10
20
 20
127
 11
24
 21
127
  0
LINE
  5
1F5
100
AcDbEntity
  8
0
  6
ByLayer
 62
  256
370
   25
100
AcDbLine
 10
20
 20
128
 11
24
 21
128
  0
LINE
  5
1F6
100
AcDbEntity
  8
0
  6
ByLayer
 62
  256
370
   25
100
AcDbLine
 10
20
 20
129
 11
24
 21
129
  0
LINE
  5
1F7
100
AcDbEntity
  8
0
  6
ByLayer
 62
  256
370
   25
100
AcDbLine
 10
20
 20
130
 11
24
 21
130
  0
LINE
  5
1F8
100
AcDbEntity
  8
0
  6
ByLayer
 62
  256
370
   25
100
AcDbLine
 10
20
 20
131
 11
24
 21
131
  0
LINE
  5
1F9
100
AcDbEntity
  8
0
  6
ByLayer
 62
  256
370
   25
100
AcDbLine
 10
20
 20
132
 11
24
 21
132
  0
LINE
  5
1FA
100
AcDbEntity
  8
0
  6
ByLayer
 62
  256
370
   25
100
AcDbLine
 10
20
 20
133
 11
24
 21
133
  0
LINE
  5
1FB
100
AcDbEntity
  8
0
  6
ByLayer
 62
  256
370
   25
100
AcDbLine
 10
20
 20
134
 11
24
 21
134
  0
LINE
  5
1FC
100
AcDbEntity
  8
0
  6
ByLayer
 62
  256
370
   25
100
AcDbLine
 10
20
 20
135
 11
24
 21
135
  0
LINE
  5
1FD
100
AcDbEntity
  8
0
  6
ByLayer
 62
  256
370
   25
100
AcDbLine
 10
20
 20
136
 11
24
 21
136
  0
LINE
  5
1FE
100
AcDbEntity
  8
0
  6
ByLayer
 62
  256
370
   25
100
AcDbLine
 10
20
 20
137
 11
24
 21
137
  0
LINE
  5
1FF
100
AcDbEntity
  8
0
  6
ByLayer
 62
  256
370
   25
100
AcDbLine
 10
20
 20
138
 11
24
 21
138
  0
LINE
  5
200
100
AcDbEntity
  8
0
  6
ByLayer
 62
  256
370
   25
100
AcDbLine
 10
20
 20
139
 11
24
 21
139
  0
LINE
  5
201
100
AcDbEntity
  8
0
  6
ByLayer
 62
  256
370
   25
100
AcDbLine
 10
20
 20
140
 11
24
 21
140
  0
LINE
  5
202
100
AcDbEntity
  8
0
  6
ByLayer
 62
  256
370
   25
100
AcDbLine
 10
20
 20
141
 11
24
 21
141
  0
LINE
  5
203
100
AcDbEntity
  8
0
  6
ByLayer
 62
  256
370
   25
100
AcDbLine
 10
20
 20
142
 11
24
 21
142
  0
LINE
  5
204
100
AcDbEntity
  8
0
  6
ByLayer
 62
  256
370
   25
100
AcDbLine
 10
20
 20
143
 11
24
 21
143
  0
LINE
  5
205
100
AcDbEntity
  8
0
  6
ByLayer
 62
  256
370
   25
100
AcDbLine
 10
20
 20
144
 11
24
 21
144
  0
LINE
  5
206
100
AcDbEntity
  8
0
  6
ByLayer
 62
  256
370
   25
100
AcDbLine
 10
20
 20
145
 11
24
 21
145
  0
LINE
  5
207
100
AcDbEntity
  8
0
  6
ByLayer
 62
  256
370
   25
100
AcDbLine
 10
20
 20
146
 11
24
 21
146
  0
LINE
  5
208
100
AcDbEntity
  8
0
  6
ByLayer
 62
  256
370
   25
100
AcDbLine
 10
20
 20
147
 11
24
 21
147
  0
LINE
  5
209
100
AcDbEntity
  8
0
  6
ByLayer
 62
  256
370
   25
100
AcDbLine
 10
20
 20
148
 11
24
 21
148
  0
LINE
  5
20A
100
AcDbEntity
  8
0
  6
ByLayer
 62
  256
370
   25
100
AcDbLine
 10
20
 20
149
 11
24
 21
149
  0
LINE
  5
20B
100
AcDbEntity
  8
0
  6
ByLayer
 62
  256
370
   25
100
AcDbLine
 10
20
 20
150
 11
24
 21
150
  0
LINE
  5
20C
100
AcDbEntity
  8
0
  6
ByLayer
 62
  256
370
   25
100
AcDbLine
 10
20
 20
151
 11
24
 21
151
  0
LINE
  5
20D
100
AcDbEntity
  8
0
  6
ByLayer
 62
  256
370
   25
100
AcDbLine
 10
20
 20
152
 11
24
 21
152
  0
LINE
  5
20E
100
AcDbEntity
  8
0
  6
ByLayer
 62
  256
370
   25
100
AcDbLine
 10
20
 20
153
 11
24
 21
153
  0
LINE
  5
20F
100
AcDbEntity
  8
0
  6
ByLayer
 62
  256
370
   25
100
AcDbLine
 10
20
 20
154
 11
24
 21
154
  0
LINE
  5
210
100
AcDbEntity
  8
0
  6
ByLayer
 62
  256
370
   25
100
AcDbLine
 10
20
 20
155
 11
24
 21
155
  0
LINE
  5
211
100
AcDbEntity
  8
0
  6
ByLayer
 62
  256
370
   25
100
AcDbLine
 10
20
 20
156
 11
24
 21
156
  0
LINE
  5
212
100
AcDbEntity
  8
0
  6
ByLayer
 62
  256
370
   25
100
AcDbLine
 10
20
 20
157
 11
24
 21
157
  0
LINE
  5
213
100
AcDbEntity
  8
0
  6
ByLayer
 62
  256
370
   25
100
AcDbLine
 10
20
 20
158
 11
24
 21
158
  0
LINE
  5
214
100
AcDbEntity
  8
0
  6
ByLayer
 62
  256
370
   25
100
AcDbLine
 10
20
 20
159
 11
24
 21
159
  0
LINE
  5
215
100
AcDbEntity
  8
0
  6
ByLayer
 62
  256
370
   25
100
AcDbLine
 10
20
 20
160
 11
24
 21
160
  0
LINE
  5
216
100
AcDbEntity
  8
0
  6
ByLayer
 62
  256
370
   25
100
AcDbLine
 10
20
 20
161
 11
24
 21
161
  0
LINE
  5
217
100
AcDbEntity
  8
0
  6
ByLayer
 62
  256
370
   25
100
AcDbLine
 10
20
 20
162
 11
24
 21
162
  0
LINE
  5
218
100
AcDbEntity
  8
0
  6
ByLayer
 62
  256
370
   25
100
AcDbLine
 10
20
 20
163
 11
24
 21
163
  0
LINE
  5
219
100
AcDbEntity
  8
0
  6
ByLayer
 62
  256
370
   25
100
AcDbLine
 10
20
 20
164
 11
24
 21
164
  0
LINE
  5
21A
100
AcDbEntity
  8
0
  6
ByLayer
 62
  256
370
   25
100
AcDbLine
 10
20
 20
165
 11
24
 21
165
  0
LINE
  5
21B
100
AcDbEntity
  8
0
  6
ByLayer
 62
  256
370
   25
100
AcDbLine
 10
20
 20
166
 11
24
 21
166
  0
LINE
  5
21C
100
AcDbEntity
  8
0
  6
ByLayer
 62
  256
370
   25
100
AcDbLine
 10
20
 20
167
 11
24
 21
167
  0
LINE
  5
21D
100
AcDbEntity
  8
0
  6
ByLayer
 62
  256
370
   25
100
AcDbLine
 10
20
 20
168
 11
24
 21
168
  0
LINE
  5
21E
100
AcDbEntity
  8
0
  6
ByLayer
 62
  256
370
   25
100
AcDbLine
 10
20
 20
169
 11
24
 21
169
  0
LINE
  5
21F
100
AcDbEntity
  8
0
  6
ByLayer
 62
  256
370
   25
100
AcDbLine
 10
20
 20
170
 11
24
 21
170
  0
LINE
  5
220
100
AcDbEntity
  8
0
  6
ByLayer
 62
  256
370
   25
100
AcDbLine
 10
20
 20
171
 11
24
 21
171
  0
LINE
  5
221
100
AcDbEntity
  8
0
  6
ByLayer
 62
  256
370
   25
100
AcDbLine
 10
20
 20
172
 11
24
 21
172
  0
LINE
  5
222
100
AcDbEntity
  8
0
  6
ByLayer
 62
  256
370
   25
100
AcDbLine
 10
20
 20
173
 11
24
 21
173
  0
LINE
  5
223
100
AcDbEntity
  8
0
  6
ByLayer
 62
  256
370
   25
100
AcDbLine
 10
20
 20
174
 11
24
 21
174
  0
LINE
  5
224
100
AcDbEntity
  8
0
  6
ByLayer
 62
  256
370
   25
100
AcDbLine
 10
20
 20
175
 11
24
 21
175
  0
LINE
  5
225
100
AcDbEntity
  8
0
  6
ByLayer
 62
  256
370
   25
100
AcDbLine
 10
20
 20
176
 11
24
 21
176
  0
LINE
  5
226
100
AcDbEntity
  8
0
  6
ByLayer
 62
  256
370
   25
100
AcDbLine
 10
20
 20
177
 11
24
 21
177
  0
LINE
  5
227
100
AcDbEntity
  8
0
  6
ByLayer
 62
  256
370
   25
100
AcDbLine
 10
20
 20
178
 11
24
 21
178
  0
LINE
  5
228
100
AcDbEntity
  8
0
  6
ByLayer
 62
  256
370
   25
100
AcDbLine
 10
20
 20
179
 11
24
 21
179
  0
LINE
  5
229
100
AcDbEntity
  8
0
  6
ByLayer
 62
  256
370
   25
100
AcDbLine
 10
20
 20
180
 11
24
 21
180
  0
LINE
  5
22A
100
AcDbEntity
  8
0
  6
ByLayer
 62
  256
370
   25
100
AcDbLine
 10
20
 20
181
 11
24
 21
181
  0
LINE
  5
22B
100
AcDbEntity
  8
0
  6
ByLayer
 62
  256
370
   25
100
AcDbLine
 10
20
 20
182
 11
24
 21
182
  0
LINE
  5
22C
100
AcDbEntity
  8
0
  6
ByLayer
 62
  256
370
   25
100
AcDbLine
 10
20
 20
183
 11
24
 21
183
  0
LINE
  5
22D
100
AcDbEntity
  8
0
  6
ByLayer
 62
  256
370
   25
100
AcDbLine
 10
20
 20
184
 11
24
 21
184
  0
LINE
  5
22E
100
AcDbEntity
  8
0
  6
ByLayer
 62
  256
370
   25
100
AcDbLine
 10
20
 20
185
 11
24
 21
185
  0
LINE
  5
22F
100
AcDbEntity
  8
0
  6
ByLayer
 62
  256
370
   25
100
AcDbLine
 10
20
 20
186
 11
24
 21
186
  0
LINE
  5
230
100
AcDbEntity
  8
0
  6
ByLayer
 62
  256
370
   25
100
AcDbLine
 10
20
 20
187
 11
24
 21
187
  0
LINE
  5
231
100
AcDbEntity
  8
0
  6
ByLayer
 62
  256
370
   25
100
AcDbLine
 10
20
 20
188
 11
24
 21
188
  0
LINE
  5
232
100
AcDbEntity
  8
0
  6
ByLayer
 62
  256
370
   25
100
AcDbLine
 10
20
 20
189
 11
24
 21
189
  0
LINE
  5
233
100
AcDbEntity
  8
0
  6
ByLayer
 62
  256
370
   25
100
AcDbLine
 10
20
 20
190
 11
24
 21
190
  0
LINE
  5
234
100
AcDbEntity
  8
0
  6
ByLayer
 62
  256
370
   25
100
AcDbLine
 10
20
 20
191
 11
24
 21
191
  0
LINE
  5
235
100
AcDbEntity
  8
0
  6
ByLayer
 62
  256
370
   25
100
AcDbLine
 10
20
 20
192
 11
24
 21
192
  0
LINE
  5
236
100
AcDbEntity
  8
0
  6
ByLayer
 62
  256
370
   25
100
AcDbLine
 10
20
 20
193
 11
24
 21
193
  0
LINE
  5
237
100
AcDbEntity
  8
0
  6
ByLayer
 62
  256
370
   25
100
AcDbLine
 10
20
 20
194
 11
24
 21
194
  0
LINE
  5
238
100
AcDbEntity
  8
0
  6
ByLayer
 62
  256
370
   25
100
AcDbLine
 10
20
 20
195
 11
24
 21
195
  0
LINE
  5
239
100
AcDbEntity
  8
0
  6
ByLayer
 62
  256
370
   25
100
AcDbLine
 10
20
 20
196
 11
24
 21
196
  0
LINE
  5
23A
100
AcDbEntity
  8
0
  6
ByLayer
 62
  256
370
   25
100
AcDbLine
 10
20
 20
197
 11
24
 21
197
  0
LINE
  5
23B
100
AcDbEntity
  8
0
  6
ByLayer
 62
  256
370
   25
100
AcDbLine
 10
20
 20
198
 11
24
 21
198
  0
LINE
  5
23C
100
AcDbEntity
  8
0
  6
ByLayer
 62
  256
370
   25
100
AcDbLine
 10
20
 20
199
 11
24
 21
199
  0
LINE
  5
23D
100
AcDbEntity
  8
0
  6
ByLayer
 62
  256
370
   25
100
AcDbLine
 10
20
 20
200
 11
24
 21
200
  0
LINE
  5
23E
100
AcDbEntity
  8
0
  6
ByLayer
 62
  256
370
   25
100
AcDbLine
 10
20
 20
25
 11
25
 21
25
  0
LINE
  5
23F
100
AcDbEntity
  8
0
  6
ByLayer
 62
  256
370
   25
100
AcDbLine
 10
20
 20
35
 11
25
 21
35
  0
LINE
  5
240
100
AcDbEntity
  8
0
  6
ByLayer
 62
  256
370
   25
100
AcDbLine
 10
20
 20
45
 11
25
 21
45
  0
LINE
  5
241
100
AcDbEntity
  8
0
  6
ByLayer
 62
  256
370
   25
100
AcDbLine
 10
20
 20
55
 11
25
 21
55
  0
LINE
  5
242
100
AcDbEntity
  8
0
  6
ByLayer
 62
  256
370
   25
100
AcDbLine
 10
20
 20
65
 11
25
 21
65
  0
LINE
  5
243
100
AcDbEntity
  8
0
  6
ByLayer
 62
  256
370
   25
100
AcDbLine
 10
20
 20
75
 11
25
 21
75
  0
LINE
  5
244
100
AcDbEntity
  8
0
  6
ByLayer
 62
  256
370
   25
100
AcDbLine
 10
20
 20
85
 11
25
 21
85
  0
LINE
  5
245
100
AcDbEntity
  8
0
  6
ByLayer
 62
  256
370
   25
100
AcDbLine
 10
20
 20
95
 11
25
 21
95
  0
LINE
  5
246
100
AcDbEntity
  8
0
  6
ByLayer
 62
  256
370
   25
100
AcDbLine
 10
20
 20
105
 11
25
 21
105
  0
LINE
  5
247
100
AcDbEntity
  8
0
  6
ByLayer
 62
  256
370
   25
100
AcDbLine
 10
20
 20
115
 11
25
 21
115
  0
LINE
  5
248
100
AcDbEntity
  8
0
  6
ByLayer
 62
  256
370
   25
100
AcDbLine
 10
20
 20
125
 11
25
 21
125
  0
LINE
  5
249
100
AcDbEntity
  8
0
  6
ByLayer
 62
  256
370
   25
100
AcDbLine
 10
20
 20
135
 11
25
 21
135
  0
LINE
  5
24A
100
AcDbEntity
  8
0
  6
ByLayer
 62
  256
370
   25
100
AcDbLine
 10
20
 20
145
 11
25
 21
145
  0
LINE
  5
24B
100
AcDbEntity
  8
0
  6
ByLayer
 62
  256
370
   25
100
AcDbLine
 10
20
 20
155
 11
25
 21
155
  0
LINE
  5
24C
100
AcDbEntity
  8
0
  6
ByLayer
 62
  256
370
   25
100
AcDbLine
 10
20
 20
165
 11
25
 21
165
  0
LINE
  5
24D
100
AcDbEntity
  8
0
  6
ByLayer
 62
  256
370
   25
100
AcDbLine
 10
20
 20
175
 11
25
 21
175
  0
LINE
  5
24E
100
AcDbEntity
  8
0
  6
ByLayer
 62
  256
370
   25
100
AcDbLine
 10
20
 20
185
 11
25
 21
185
  0
LINE
  5
24F
100
AcDbEntity
  8
0
  6
ByLayer
 62
  256
370
   25
100
AcDbLine
 10
20
 20
195
 11
25
 21
195
  0
LINE
  5
250
100
AcDbEntity
  8
0
  6
ByLayer
 62
  256
370
   25
100
AcDbLine
 10
20
 20
30
 11
26
 21
30
  0
LINE
  5
251
100
AcDbEntity
  8
0
  6
ByLayer
 62
  256
370
   25
100
AcDbLine
 10
20
 20
40
 11
26
 21
40
  0
LINE
  5
252
100
AcDbEntity
  8
0
  6
ByLayer
 62
  256
370
   25
100
AcDbLine
 10
20
 20
50
 11
26
 21
50
  0
LINE
  5
253
100
AcDbEntity
  8
0
  6
ByLayer
 62
  256
370
   25
100
AcDbLine
 10
20
 20
60
 11
26
 21
60
  0
LINE
  5
254
100
AcDbEntity
  8
0
  6
ByLayer
 62
  256
370
   25
100
AcDbLine
 10
20
 20
70
 11
26
 21
70
  0
LINE
  5
255
100
AcDbEntity
  8
0
  6
ByLayer
 62
  256
370
   25
100
AcDbLine
 10
20
 20
80
 11
26
 21
80
  0
LINE
  5
256
100
AcDbEntity
  8
0
  6
ByLayer
 62
  256
370
   25
100
AcDbLine
 10
20
 20
90
 11
26
 21
90
  0
LINE
  5
257
100
AcDbEntity
  8
0
  6
ByLayer
 62
  256
370
   25
100
AcDbLine
 10
20
 20
100
 11
26
 21
100
  0
LINE
  5
258
100
AcDbEntity
  8
0
  6
ByLayer
 62
  256
370
   25
100
AcDbLine
 10
20
 20
110
 11
26
 21
110
  0
LINE
  5
259
100
AcDbEntity
  8
0
  6
ByLayer
 62
  256
370
   25
100
AcDbLine
 10
20
 20
120
 11
26
 21
120
  0
LINE
  5
25A
100
AcDbEntity
  8
0
  6
ByLayer
 62
  256
370
   25
100
AcDbLine
 10
20
 20
130
 11
26
 21
130
  0
LINE
  5
25B
100
AcDbEntity
  8
0
  6
ByLayer
 62
  256
370
   25
100
AcDbLine
 10
20
 20
140
 11
26
 21
140
  0
LINE
  5
25C
100
AcDbEntity
  8
0
  6
ByLayer
 62
  256
370
   25
100
AcDbLine
 10
20
 20
150
 11
26
 21
150
  0
LINE
  5
25D
100
AcDbEntity
  8
0
  6
ByLayer
 62
  256
370
   25
100
AcDbLine
 10
20
 20
160
 11
26
 21
160
  0
LINE
  5
25E
100
AcDbEntity
  8
0
  6
ByLayer
 62
  256
370
   25
100
AcDbLine
 10
20
 20
170
 11
26
 21
170
  0
LINE
  5
25F
100
AcDbEntity
  8
0
  6
ByLayer
 62
  256
370
   25
100
AcDbLine
 10
20
 20
180
 11
26
 21
180
  0
LINE
  5
260
100
AcDbEntity
  8
0
  6
ByLayer
 62
  256
370
   25
100
AcDbLine
 10
20
 20
190
 11
26
 21
190
  0
LINE
  5
261
100
AcDbEntity
  8
0
  6
ByLayer
 62
  256
370
   25
100
AcDbLine
 10
20
 20
200
 11
26
 21
200
  0
LINE
  5
262
100
AcDbEntity
  8
0
  6
ByLayer
 62
  256
370
   25
100
AcDbLine
 10
20
 20
21
 11
21
 21
21
  0
LINE
  5
263
100
AcDbEntity
  8
0
  6
ByLayer
 62
  256
370
   25
100
AcDbLine
 10
20
 20
22
 11
22
 21
22
  0
LINE
  5
264
100
AcDbEntity
  8
0
  6
ByLayer
 62
  256
370
   25
100
AcDbLine
 10
20
 20
23
 11
23
 21
23
  0
LINE
  5
265
100
AcDbEntity
  8
0
  6
ByLayer
 62
  256
370
   25
100
AcDbLine
 10
23
 20
20
 11
23
 21
23
  0
LINE
  5
266
100
AcDbEntity
  8
0
  6
ByLayer
 62
  256
370
   25
100
AcDbLine
 10
22
 20
20
 11
22
 21
22
  0
LINE
  5
267
100
AcDbEntity
  8
0
  6
ByLayer
 62
  256
370
   25
100
AcDbLine
 10
21
 20
20
 11
21
 21
21
  0
LINE
  5
268
100
AcDbEntity
  8
0
  6
ByLayer
 62
  256
370
   35
100
AcDbLine
 10
20
 20
20
 11
20
 21
200
  0
LINE
  5
269
100
AcDbEntity
  8
0
  6
ByLayer
 62
  256
370
   35
100
AcDbLine
 10
20
 20
20
 11
290
 21
20
  0
MTEXT
  5
26A
100
AcDbEntity
  8
0
  6
ByLayer
 62
  256
370
   50
100
AcDbMText
 10
18
 20
30
 30
0
 40
7
 41
1.555555555555556
 71
    8
 72
    1
  1
1
  7
STANDARD
210
0
220
0
230
1
 50
90
 73
    2
 44
1
  0
MTEXT
  5
26B
100
AcDbEntity
  8
0
  6
ByLayer
 62
  256
370
   50
100
AcDbMText
 10
18
 20
40
 30
0
 40
7
 41
3.111111111111111
 71
    8
 72
    1
  1
2
  7
STANDARD
210
0
220
0
230
1
 50
90
 73
    2
 44
1
  0
MTEXT
  5
26C
100
AcDbEntity
  8
0
  6
ByLayer
 62
  256
370
   50
100
AcDbMText
 10
18
 20
50
 30
0
 40
7
 41
3.111111111111545
 71
    8
 72
    1
  1
3
  7
STANDARD
210
0
220
0
230
1
 50
90
 73
    2
 44
1
  0
MTEXT
  5
26D
100
AcDbEntity
  8
0
  6
ByLayer
 62
  256
370
   50
100
AcDbMText
 10
18
 20
60
 30
0
 40
7
 41
3.888888888888889
 71
    8
 72
    1
  1
4
  7
STANDARD
210
0
220
0
230
1
 50
90
 73
    2
 44
1
  0
MTEXT
  5
26E
100
AcDbEntity
  8
0
  6
ByLayer
 62
  256
370
   50
100
AcDbMText
 10
18
 20
70
 30
0
 40
7
 41
3.111111111111545
 71
    8
 72
    1
  1
5
  7
STANDARD
210
0
220
0
230
1
 50
90
 73
    2
 44
1
  0
MTEXT
  5
26F
100
AcDbEntity
  8
0
  6
ByLayer
 62
  256
370
   50
100
AcDbMText
 10
18
 20
80
 30
0
 40
7
 41
3.111111111111545
 71
    8
 72
    1
  1
6
  7
STANDARD
210
0
220
0
230
1
 50
90
 73
    2
 44
1
  0
MTEXT
  5
270
100
AcDbEntity
  8
0
  6
ByLayer
 62
  256
370
   50
100
AcDbMText
 10
18
 20
90
 30
0
 40
7
 41
3.111111111111111
 71
    8
 72
    1
  1
7
  7
STANDARD
210
0
220
0
230
1
 50
90
 73
    2
 44
1
  0
MTEXT
  5
271
100
AcDbEntity
  8
0
  6
ByLayer
 62
  256
370
   50
100
AcDbMText
 10
18
 20
100
 30
0
 40
7
 41
3.111111111111111
 71
    8
 72
    1
  1
8
  7
STANDARD
210
0
220
0
230
1
 50
90
 73
    2
 44
1
  0
MTEXT
  5
272
100
AcDbEntity
  8
0
  6
ByLayer
 62
  256
370
   50
100
AcDbMText
 10
18
 20
110
 30
0
 40
7
 41
3.111111111111545
 71
    8
 72
    1
  1
9
  7
STANDARD
210
0
220
0
230
1
 50
90
 73
    2
 44
1
  0
MTEXT
  5
273
100
AcDbEntity
  8
0
  6
ByLayer
 62
  256
370
   50
100
AcDbMText
 10
18
 20
120
 30
0
 40
7
 41
7
 71
    8
 72
    1
  1
10
  7
STANDARD
210
0
220
0
230
1
 50
90
 73
    2
 44
1
  0
MTEXT
  5
274
100
AcDbEntity
  8
0
  6
ByLayer
 62
  256
370
   50
100
AcDbMText
 10
40
 20
11
 30
0
 40
7
 41
3.111111111111111
 71
    8
 72
    1
  1
2
  7
STANDARD
210
0
220
0
230
1
 50
0
 73
    2
 44
1
  0
MTEXT
  5
275
100
AcDbEntity
  8
0
  6
ByLayer
 62
  256
370
   50
100
AcDbMText
 10
50
 20
11
 30
0
 40
7
 41
3.111111111111545
 71
    8
 72
    1
  1
3
  7
STANDARD
210
0
220
0
230
1
 50
0
 73
    2
 44
1
  0
MTEXT
  5
276
100
AcDbEntity
  8
0
  6
ByLayer
 62
  256
370
   50
100
AcDbMText
 10
60
 20
11
 30
0
 40
7
 41
3.888888888888889
 71
    8
 72
    1
  1
4
  7
STANDARD
210
0
220
0
230
1
 50
0
 73
    2
 44
1
  0
MTEXT
  5
277
100
AcDbEntity
  8
0
  6
ByLayer
 62
  256
370
   50
100
AcDbMText
 10
70
 20
11
 30
0
 40
7
 41
3.111111111111545
 71
    8
 72
    1
  1
5
  7
STANDARD
210
0
220
0
230
1
 50
0
 73
    2
 44
1
  0
MTEXT
  5
278
100
AcDbEntity
  8
0
  6
ByLayer
 62
  256
370
   50
100
AcDbMText
 10
80
 20
11
 30
0
 40
7
 41
3.111111111111545
 71
    8
 72
    1
  1
6
  7
STANDARD
210
0
220
0
230
1
 50
0
 73
    2
 44
1
  0
MTEXT
  5
279
100
AcDbEntity
  8
0
  6
ByLayer
 62
  256
370
   50
100
AcDbMText
 10
90
 20
11
 30
0
 40
7
 41
3.111111111111111
 71
    8
 72
    1
  1
7
  7
STANDARD
210
0
220
0
230
1
 50
0
 73
    2
 44
1
  0
MTEXT
  5
27A
100
AcDbEntity
  8
0
  6
ByLayer
 62
  256
370
   50
100
AcDbMText
 10
100
 20
11
 30
0
 40
7
 41
3.111111111111111
 71
    8
 72
    1
  1
8
  7
STANDARD
210
0
220
0
230
1
 50
0
 73
    2
 44
1
  0
MTEXT
  5
27B
100
AcDbEntity
  8
0
  6
ByLayer
 62
  256
370
   50
100
AcDbMText
 10
110
 20
11
 30
0
 40
7
 41
3.111111111111545
 71
    8
 72
    1
  1
9
  7
STANDARD
210
0
220
0
230
1
 50
0
 73
    2
 44
1
  0
MTEXT
  5
27C
100
AcDbEntity
  8
0
  6
ByLayer
 62
  256
370
   50
100
AcDbMText
 10
120
 20
11
 30
0
 40
7
 41
7
 71
    8
 72
    1
  1
10
  7
STANDARD
210
0
220
0
230
1
 50
0
 73
    2
 44
1
  0
MTEXT
  5
27D
100
AcDbEntity
  8
0
  6
ByLayer
 62
  256
370
   50
100
AcDbMText
 10
220
 20
11
 30
0
 40
7
 41
8.555555555555557
 71
    8
 72
    1
  1
20
  7
STANDARD
210
0
220
0
230
1
 50
0
 73
    2
 44
1
  0
MTEXT
  5
27E
100
AcDbEntity
  8
0
  6
ByLayer
 62
  256
370
   50
100
AcDbMText
 10
30
 20
11
 30
0
 40
7
 41
1.555555555555556
 71
    8
 72
    1
  1
1
  7
STANDARD
210
0
220
0
230
1
 50
0
 73
    2
 44
1
  0
CIRCLE
  5
27F
100
AcDbEntity
  8
0
  6
ByLayer
 62
  256
370
   -3
100
AcDbCircle
 10
122.2
 20
100
 40
4.199999999999999
  0
CIRCLE
  5
280
100
AcDbEntity
  8
0
  6
ByLayer
 62
  256
370
   -3
100
AcDbCircle
 10
77.8
 20
100
 40
4.199999999999999
  0
ARC
  5
281
100
AcDbEntity
  8
0
  6
ByLayer
 62
  256
370
   -3
100
AcDbCircle
 10
77.8
 20
100
 40
8
100
AcDbArc
 50
132.5
 51
217.5
  0
ARC
  5
282
100
AcDbEntity
  8
0
  6
ByLayer
 62
  256
370
   -3
100
AcDbCircle
 10
122.2
 20
100
 40
8
100
AcDbArc
 50
322.5
 51
47.50000000000005
  0
LINE
  5
283
100
AcDbEntity
  8
0
  6
ByLayer
 62
  256
370
   -3
100
AcDbLine
 10
86.58296070271895
 20
75.4123857099128
 11
71.45317327767012
 21
95.12990856793023
  0
ARC
  5
284
100
AcDbEntity
  8
0
  6
ByLayer
 62
  256
370
   -3
100
AcDbCircle
 10
94.5164941056313
 20
81.5
 40
10
100
AcDbArc
 50
217.5
 51
270
  0
LINE
  5
285
100
AcDbEntity
  8
0
  6
ByLayer
 62
  256
370
   -3
100
AcDbLine
 10
113.4170392972811
 20
75.4123857099128
 11
128.5468267223299
 21
95.12990856793023
  0
LINE
  5
286
100
AcDbEntity
  8
0
  6
ByLayer
 62
  256
370
   -3
100
AcDbLine
 10
94.5164941056313
 20
71.5
 11
105.4835058943687
 21
71.5
  0
ARC
  5
287
100
AcDbEntity
  8
0
  6
ByLayer
 62
  256
370
   -3
100
AcDbCircle
 10
105.4835058943687
 20
81.5
 40
10
100
AcDbArc
 50
270
 51
322.5
  0
LINE
  5
288
100
AcDbEntity
  8
0
  6
ByLayer
 62
  256
370
   -3
100
AcDbLine
 10
72.39527833907472
 20
105.898218694481
 11
90.48517470968982
 21
122.4745546736202
  0
ARC
  5
289
100
AcDbEntity
  8
0
  6
ByLayer
 62
  256
370
   -3
100
AcDbCircle
 10
91.83635512492114
 20
121
 40
2
100
AcDbArc
 50
90
 51
132.4999999999999
  0
LINE
  5
28A
100
AcDbEntity
  8
0
  6
ByLayer
 62
  256
370
   -3
100
AcDbLine
 10
91.83635512492114
 20
123
 11
108.1636448750789
 21
123
  0
LINE
  5
28B
100
AcDbEntity
  8
0
  6
ByLayer
 62
  256
370
   -3
100
AcDbLine
 10
127.6047216609253
 20
105.898218694481
 11
109.5148252903102
 21
122.4745546736202
  0
ARC
  5
28C
100
AcDbEntity
  8
0
  6
ByLayer
 62
  256
370
   -3
100
AcDbCircle
 10
108.1636448750789
 20
121
 40
2
100
AcDbArc
 50
47.50000000000015
 51
90
  0
ARC
  5
28D
100
AcDbEntity
  8
0
  6
ByLayer
 62
  256
370
   -3
100
AcDbCircle
 10
122.2
 20
100
 40
8.449999999999999
100
AcDbArc
 50
180
 51
232.5
  0
ARC
  5
28E
100
AcDbEntity
  8
0
  6
ByLayer
 62
  256
370
   -3
100
AcDbCircle
 10
115.2296816378501
 20
90.91610425366537
 40
3
100
AcDbArc
 50
322.5
 51
52.50000000000004
  0
LINE
  5
28F
100
AcDbEntity
  8
0
  6
ByLayer
 62
  256
370
   -3
100
AcDbLine
 10
100
 20
109
 11
109.75
 21
109
  0
LINE
  5
290
100
AcDbEntity
  8
0
  6
ByLayer
 62
  256
370
   -3
100
AcDbLine
 10
113.75
 20
100
 11
113.75
 21
105
  0
ARC
  5
291
100
AcDbEntity
  8
0
  6
ByLayer
 62
  256
370
   -3
100
AcDbCircle
 10
109.75
 20
105
 40
4
100
AcDbArc
 50
0
 51
90
  0
LINE
  5
292
100
AcDbEntity
  8
0
  6
ByLayer
 62
  256
370
   -3
100
AcDbLine
 10
109.0167679267641
 20
77.89123857099128
 11
117.6097416587238
 21
89.0898199666392
  0
LINE
  5
293
100
AcDbEntity
  8
0
  6
ByLayer
 62
  256
370
   -3
100
AcDbLine
 10
100
 20
77.5
 11
108.2234145864729
 21
77.5
  0
ARC
  5
294
100
AcDbEntity
  8
0
  6
ByLayer
 62
  256
370
   -3
100
AcDbCircle
 10
108.2234145864729
 20
78.5
 40
1
100
AcDbArc
 50
269.9999999999999
 51
322.4999999999999
  0
ARC
  5
295
100
AcDbEntity
  8
0
  6
ByLayer
 62
  256
370
   -3
100
AcDbCircle
 10
77.8
 20
100
 40
8.449999999999999
100
AcDbArc
 50
307.5
 51
0
  0
ARC
  5
296
100
AcDbEntity
  8
0
  6
ByLayer
 62
  256
370
   -3
100
AcDbCircle
 10
84.77031836214985
 20
90.91610425366537
 40
3
100
AcDbArc
 50
127.4999999999999
 51
217.5
  0
LINE
  5
297
100
AcDbEntity
  8
0
  6
ByLayer
 62
  256
370
   -3
100
AcDbLine
 10
100
 20
109
 11
90.25
 21
109
  0
LINE
  5
298
100
AcDbEntity
  8
0
  6
ByLayer
 62
  256
370
   -3
100
AcDbLine
 10
86.25
 20
100
 11
86.25
 21
105
  0
ARC
  5
299
100
AcDbEntity
  8
0
  6
ByLayer
 62
  256
370
   -3
100
AcDbCircle
 10
90.25
 20
105
 40
4
100
AcDbArc
 50
90
 51
180
  0
LINE
  5
29A
100
AcDbEntity
  8
0
  6
ByLayer
 62
  256
370
   -3
100
AcDbLine
 10
90.9832320732359
 20
77.89123857099128
 11
82.39025834127615
 21
89.0898199666392
  0
LINE
  5
29B
100
AcDbEntity
  8
0
  6
ByLayer
 62
  256
370
   -3
100
AcDbLine
 10
100
 20
77.5
 11
91.77658541352713
 21
77.5
  0
ARC
  5
29C
100
AcDbEntity
  8
0
  6
ByLayer
 62
  256
370
   -3
100
AcDbCircle
 10
91.77658541352713
 20
78.5
 40
1
100
AcDbArc
 50
217.5000000000001
 51
270.0000000000001
  0
MTEXT
  5
29D
100
AcDbEntity
  8
0
  6
ByLayer
 62
  256
370
   -1
100
AcDbMText
 10
60
 20
170
 30
0
 40
7
 41
58.33333333333508
 71
    7
 72
    1
  1
255-4580-06
  7

210
0
220
0
230
1
 50
0
 73
    2
 44
1
  0
MTEXT
  5
29E
100
AcDbEntity
  8
0
  6
ByLayer
 62
  256
370
   -1
100
AcDbMText
 10
60
 20
180
 30
0
 40
7
 41
82.83333693334471
 71
    7
 72
    1
  1
Fuel pump gasket
  7

210
0
220
0
230
1
 50
0
 73
    2
 44
1
  0
MTEXT
  5
29F
100
AcDbEntity
  8
0
  6
ByLayer
 62
  256
370
   -1
100
AcDbMText
 10
160
 20
100
 30
0
 40
3
 41
85.73333487619631
 71
    7
 72
    1
  1
* 0.5mm or 1.0mm from LDA672 workshop\P  manual p16 under (Fuel feeding pump)
  7

210
0
220
0
230
1
 50
0
 73
    2
 44
1
  0
MTEXT
  5
2A0
100
AcDbEntity
  8
0
  6
ByLayer
 62
  256
370
   -1
100
AcDbMText
 10
160
 20
120
 30
0
 40
7
 41
43.71111111111208
 71
    7
 72
    1
  1
d = 1mm*
  7

210
0
220
0
230
1
 50
0
 73
    2
 44
1
  0
ENDSEC
  0
SECTION
  2
OBJECTS
  0
DICTIONARY
  5
C
330
0
100
AcDbDictionary
281
    1
  3
ACAD_GROUP
350
D
  0
DICTIONARY
  5
D
330
C
100
AcDbDictionary
281
    1
  0
PLOTSETTINGS
  5
2A1
100
AcDbPlotSettings
  6
1x1
 40
4.23
 41
4.23
 42
4.23
 43
4.23
  0
ENDSEC
  0
EOF
